<svg width="500" height="500" viewBox="0 0 500 500" fill="none" xmlns="http://www.w3.org/2000/svg">
<path d="M97.3 157.7C97.3 161.233 96.4 164.4 94.6 167.2C92.8 169.933 90.3667 172.1 87.3 173.7C84.3 175.233 81 176 77.4 176H43.9V105H78.1C81.4333 105 84.3 105.9 86.7 107.7C89.1667 109.433 91.0333 111.7 92.3 114.5C93.6333 117.233 94.3 120.1 94.3 123.1C94.3 126.633 93.4 129.9 91.6 132.9C89.8 135.9 87.3 138.133 84.1 139.6C88.1667 140.8 91.3667 143.033 93.7 146.3C96.1 149.567 97.3 153.367 97.3 157.7ZM90.3 156.5C90.3 154.1 89.7667 151.9 88.7 149.9C87.6333 147.833 86.1667 146.167 84.3 144.9C82.5 143.633 80.4333 143 78.1 143H50.9V169.9H77.4C79.8 169.9 81.9667 169.267 83.9 168C85.8333 166.733 87.3667 165.1 88.5 163.1C89.7 161.033 90.3 158.833 90.3 156.5ZM50.9 111.1V137.3H75.3C77.6333 137.3 79.7 136.7 81.5 135.5C83.3 134.233 84.7333 132.6 85.8 130.6C86.8667 128.6 87.4 126.467 87.4 124.2C87.4 121.8 86.9 119.633 85.9 117.7C84.9 115.7 83.5333 114.1 81.8 112.9C80.0667 111.7 78.1 111.1 75.9 111.1H50.9ZM131.302 177C127.835 177 124.535 176.3 121.402 174.9C118.335 173.433 115.635 171.467 113.302 169C111.035 166.467 109.235 163.567 107.902 160.3C106.635 156.967 106.002 153.433 106.002 149.7C106.002 144.833 107.102 140.4 109.302 136.4C111.502 132.4 114.468 129.2 118.202 126.8C122.002 124.4 126.235 123.2 130.902 123.2C135.702 123.2 139.968 124.433 143.702 126.9C147.502 129.3 150.535 132.533 152.802 136.6C155.068 140.6 156.202 145.067 156.202 150C156.202 150.267 156.202 150.533 156.202 150.8C156.202 151.067 156.168 151.333 156.102 151.6H109.502C109.835 155.8 111.002 159.6 113.002 163C115.068 166.4 117.702 169.1 120.902 171.1C124.168 173.1 127.702 174.1 131.502 174.1C135.302 174.1 138.868 173.133 142.202 171.2C145.535 169.2 147.902 166.667 149.302 163.6L152.402 164.4C151.402 166.8 149.835 168.967 147.702 170.9C145.568 172.833 143.068 174.333 140.202 175.4C137.402 176.467 134.435 177 131.302 177ZM109.402 148.7H152.802C152.535 144.3 151.402 140.433 149.402 137.1C147.468 133.7 144.902 131.033 141.702 129.1C138.502 127.167 134.935 126.2 131.002 126.2C127.135 126.2 123.602 127.167 120.402 129.1C117.268 131.033 114.702 133.7 112.702 137.1C110.768 140.5 109.668 144.367 109.402 148.7ZM189.312 177C185.778 177 182.478 176.3 179.412 174.9C176.345 173.433 173.645 171.467 171.312 169C168.978 166.467 167.145 163.567 165.812 160.3C164.545 157.033 163.912 153.533 163.912 149.8C163.912 144.8 165.012 140.3 167.212 136.3C169.412 132.3 172.412 129.133 176.212 126.8C180.078 124.4 184.412 123.2 189.212 123.2C193.745 123.2 197.778 124.267 201.312 126.4C204.845 128.467 207.478 131.333 209.212 135L205.912 136.2C204.312 133.133 201.978 130.733 198.912 129C195.912 127.267 192.578 126.4 188.912 126.4C184.912 126.4 181.278 127.433 178.012 129.5C174.745 131.567 172.145 134.367 170.212 137.9C168.278 141.433 167.312 145.4 167.312 149.8C167.312 154.133 168.278 158.133 170.212 161.8C172.212 165.467 174.845 168.4 178.112 170.6C181.445 172.733 185.078 173.8 189.012 173.8C191.612 173.8 194.145 173.333 196.612 172.4C199.078 171.4 201.212 170.133 203.012 168.6C204.812 167 205.978 165.3 206.512 163.5L209.912 164.5C209.112 166.9 207.645 169.067 205.512 171C203.445 172.867 201.012 174.333 198.212 175.4C195.412 176.467 192.445 177 189.312 177ZM242.525 177C239.058 177 235.792 176.3 232.725 174.9C229.658 173.5 226.992 171.567 224.725 169.1C222.458 166.567 220.692 163.7 219.425 160.5C218.158 157.233 217.525 153.8 217.525 150.2C217.525 146.533 218.158 143.067 219.425 139.8C220.758 136.533 222.558 133.667 224.825 131.2C227.092 128.667 229.758 126.7 232.825 125.3C235.892 123.9 239.125 123.2 242.525 123.2C245.992 123.2 249.225 123.9 252.225 125.3C255.292 126.7 257.958 128.667 260.225 131.2C262.558 133.667 264.358 136.533 265.625 139.8C266.958 143.067 267.625 146.533 267.625 150.2C267.625 153.8 266.992 157.233 265.725 160.5C264.458 163.7 262.658 166.567 260.325 169.1C258.058 171.567 255.392 173.5 252.325 174.9C249.325 176.3 246.058 177 242.525 177ZM220.925 150.3C220.925 154.633 221.892 158.6 223.825 162.2C225.758 165.733 228.358 168.567 231.625 170.7C234.892 172.767 238.492 173.8 242.425 173.8C246.425 173.8 250.058 172.733 253.325 170.6C256.592 168.467 259.192 165.6 261.125 162C263.125 158.333 264.125 154.367 264.125 150.1C264.125 145.767 263.125 141.8 261.125 138.2C259.192 134.6 256.592 131.733 253.325 129.6C250.058 127.467 246.458 126.4 242.525 126.4C238.658 126.4 235.058 127.5 231.725 129.7C228.458 131.833 225.825 134.733 223.825 138.4C221.892 142 220.925 145.967 220.925 150.3ZM355.612 176H352.212V147C352.212 140 351.112 134.833 348.912 131.5C346.778 128.1 343.478 126.4 339.012 126.4C334.345 126.4 330.278 128 326.812 131.2C323.345 134.4 320.912 138.533 319.512 143.6V176H316.112V147C316.112 139.933 315.045 134.733 312.912 131.4C310.845 128.067 307.545 126.4 303.012 126.4C298.478 126.4 294.445 127.967 290.912 131.1C287.445 134.233 284.978 138.367 283.512 143.5V176H280.112V124H283.412V137C285.612 132.6 288.445 129.2 291.912 126.8C295.445 124.4 299.278 123.2 303.412 123.2C307.745 123.2 311.312 124.533 314.112 127.2C316.912 129.867 318.578 133.4 319.112 137.8C321.645 132.933 324.612 129.3 328.012 126.9C331.412 124.433 335.312 123.2 339.712 123.2C342.512 123.2 344.878 123.7 346.812 124.7C348.812 125.7 350.445 127.2 351.712 129.2C353.045 131.133 354.012 133.567 354.612 136.5C355.278 139.433 355.612 142.8 355.612 146.6V176ZM392.825 177C389.358 177 386.058 176.3 382.925 174.9C379.858 173.433 377.158 171.467 374.825 169C372.558 166.467 370.758 163.567 369.425 160.3C368.158 156.967 367.525 153.433 367.525 149.7C367.525 144.833 368.625 140.4 370.825 136.4C373.025 132.4 375.992 129.2 379.725 126.8C383.525 124.4 387.758 123.2 392.425 123.2C397.225 123.2 401.492 124.433 405.225 126.9C409.025 129.3 412.058 132.533 414.325 136.6C416.592 140.6 417.725 145.067 417.725 150C417.725 150.267 417.725 150.533 417.725 150.8C417.725 151.067 417.692 151.333 417.625 151.6H371.025C371.358 155.8 372.525 159.6 374.525 163C376.592 166.4 379.225 169.1 382.425 171.1C385.692 173.1 389.225 174.1 393.025 174.1C396.825 174.1 400.392 173.133 403.725 171.2C407.058 169.2 409.425 166.667 410.825 163.6L413.925 164.4C412.925 166.8 411.358 168.967 409.225 170.9C407.092 172.833 404.592 174.333 401.725 175.4C398.925 176.467 395.958 177 392.825 177ZM370.925 148.7H414.325C414.058 144.3 412.925 140.433 410.925 137.1C408.992 133.7 406.425 131.033 403.225 129.1C400.025 127.167 396.458 126.2 392.525 126.2C388.658 126.2 385.125 127.167 381.925 129.1C378.792 131.033 376.225 133.7 374.225 137.1C372.292 140.5 371.192 144.367 370.925 148.7ZM97.3 274.7C97.3 278.233 96.4 281.4 94.6 284.2C92.8 286.933 90.3667 289.1 87.3 290.7C84.3 292.233 81 293 77.4 293H43.9V222H78.1C81.4333 222 84.3 222.9 86.7 224.7C89.1667 226.433 91.0333 228.7 92.3 231.5C93.6333 234.233 94.3 237.1 94.3 240.1C94.3 243.633 93.4 246.9 91.6 249.9C89.8 252.9 87.3 255.133 84.1 256.6C88.1667 257.8 91.3667 260.033 93.7 263.3C96.1 266.567 97.3 270.367 97.3 274.7ZM90.3 273.5C90.3 271.1 89.7667 268.9 88.7 266.9C87.6333 264.833 86.1667 263.167 84.3 261.9C82.5 260.633 80.4333 260 78.1 260H50.9V286.9H77.4C79.8 286.9 81.9667 286.267 83.9 285C85.8333 283.733 87.3667 282.1 88.5 280.1C89.7 278.033 90.3 275.833 90.3 273.5ZM50.9 228.1V254.3H75.3C77.6333 254.3 79.7 253.7 81.5 252.5C83.3 251.233 84.7333 249.6 85.8 247.6C86.8667 245.6 87.4 243.467 87.4 241.2C87.4 238.8 86.9 236.633 85.9 234.7C84.9 232.7 83.5333 231.1 81.8 229.9C80.0667 228.7 78.1 228.1 75.9 228.1H50.9ZM109.702 293V241H113.102V293H109.702ZM109.702 228.4V220H113.102V228.4H109.702ZM129.928 220H133.428V284.1C133.428 286.233 133.961 287.833 135.028 288.9C136.161 289.9 137.628 290.4 139.428 290.4C140.295 290.4 141.261 290.3 142.328 290.1C143.461 289.9 144.461 289.667 145.328 289.4L146.128 292.2C145.128 292.533 143.861 292.833 142.328 293.1C140.861 293.367 139.595 293.5 138.528 293.5C135.995 293.5 133.928 292.733 132.328 291.2C130.728 289.6 129.928 287.467 129.928 284.8V220ZM154.733 220H158.233V284.1C158.233 286.233 158.766 287.833 159.833 288.9C160.966 289.9 162.433 290.4 164.233 290.4C165.099 290.4 166.066 290.3 167.133 290.1C168.266 289.9 169.266 289.667 170.133 289.4L170.933 292.2C169.933 292.533 168.666 292.833 167.133 293.1C165.666 293.367 164.399 293.5 163.333 293.5C160.799 293.5 158.733 292.733 157.133 291.2C155.533 289.6 154.733 287.467 154.733 284.8V220ZM179.038 293V241H182.438V293H179.038ZM179.038 228.4V220H182.438V228.4H179.038ZM220.064 294C216.597 294 213.331 293.3 210.264 291.9C207.197 290.5 204.531 288.567 202.264 286.1C199.997 283.567 198.231 280.7 196.964 277.5C195.697 274.233 195.064 270.8 195.064 267.2C195.064 263.533 195.697 260.067 196.964 256.8C198.297 253.533 200.097 250.667 202.364 248.2C204.631 245.667 207.297 243.7 210.364 242.3C213.431 240.9 216.664 240.2 220.064 240.2C223.531 240.2 226.764 240.9 229.764 242.3C232.831 243.7 235.497 245.667 237.764 248.2C240.097 250.667 241.897 253.533 243.164 256.8C244.497 260.067 245.164 263.533 245.164 267.2C245.164 270.8 244.531 274.233 243.264 277.5C241.997 280.7 240.197 283.567 237.864 286.1C235.597 288.567 232.931 290.5 229.864 291.9C226.864 293.3 223.597 294 220.064 294ZM198.464 267.3C198.464 271.633 199.431 275.6 201.364 279.2C203.297 282.733 205.897 285.567 209.164 287.7C212.431 289.767 216.031 290.8 219.964 290.8C223.964 290.8 227.597 289.733 230.864 287.6C234.131 285.467 236.731 282.6 238.664 279C240.664 275.333 241.664 271.367 241.664 267.1C241.664 262.767 240.664 258.8 238.664 255.2C236.731 251.6 234.131 248.733 230.864 246.6C227.597 244.467 223.997 243.4 220.064 243.4C216.197 243.4 212.597 244.5 209.264 246.7C205.997 248.833 203.364 251.733 201.364 255.4C199.431 259 198.464 262.967 198.464 267.3ZM299.051 293H295.651V264C295.651 256.933 294.617 251.733 292.551 248.4C290.551 245.067 287.351 243.4 282.951 243.4C279.817 243.4 276.751 244.167 273.751 245.7C270.751 247.167 268.117 249.2 265.851 251.8C263.651 254.333 262.051 257.233 261.051 260.5V293H257.651V241H260.951V254C262.351 251.267 264.217 248.867 266.551 246.8C268.951 244.733 271.617 243.133 274.551 242C277.484 240.8 280.484 240.2 283.551 240.2C286.284 240.2 288.617 240.7 290.551 241.7C292.551 242.7 294.151 244.167 295.351 246.1C296.617 248.033 297.551 250.467 298.151 253.4C298.751 256.333 299.051 259.733 299.051 263.6V293ZM310.282 278.1C310.282 275.033 311.215 272.4 313.082 270.2C314.949 267.933 317.482 266.167 320.682 264.9C323.882 263.567 327.615 262.9 331.882 262.9C334.682 262.9 337.582 263.167 340.582 263.7C343.582 264.167 346.282 264.833 348.682 265.7V260.2C348.682 255.133 347.182 251.067 344.182 248C341.249 244.867 337.282 243.3 332.282 243.3C329.749 243.3 327.049 243.833 324.182 244.9C321.382 245.967 318.515 247.533 315.582 249.6L313.882 247.1C317.282 244.767 320.515 243.033 323.582 241.9C326.649 240.767 329.615 240.2 332.482 240.2C338.482 240.2 343.249 242.033 346.782 245.7C350.315 249.3 352.082 254.2 352.082 260.4V287.8C352.082 288.533 352.215 289.1 352.482 289.5C352.815 289.833 353.282 290 353.882 290V293C353.415 293 353.015 293 352.682 293C352.415 293 352.182 292.967 351.982 292.9C351.049 292.7 350.315 292.2 349.782 291.4C349.249 290.6 348.949 289.733 348.882 288.8V284.3C346.482 287.367 343.382 289.767 339.582 291.5C335.782 293.167 331.715 294 327.382 294C324.182 294 321.282 293.3 318.682 291.9C316.082 290.5 314.015 288.6 312.482 286.2C311.015 283.733 310.282 281.033 310.282 278.1ZM346.882 282.6C347.482 281.8 347.915 281.033 348.182 280.3C348.515 279.5 348.682 278.8 348.682 278.2V268.7C346.082 267.7 343.382 266.967 340.582 266.5C337.849 265.967 335.015 265.7 332.082 265.7C326.549 265.7 322.082 266.833 318.682 269.1C315.282 271.3 313.582 274.233 313.582 277.9C313.582 280.3 314.182 282.5 315.382 284.5C316.649 286.5 318.349 288.1 320.482 289.3C322.682 290.5 325.115 291.1 327.782 291.1C331.915 291.1 335.682 290.333 339.082 288.8C342.549 287.2 345.149 285.133 346.882 282.6ZM367.709 293V241H371.109V293H367.709ZM367.709 228.4V220H371.109V228.4H367.709ZM410.736 244.2C406.003 244.4 401.836 245.933 398.236 248.8C394.703 251.6 392.236 255.433 390.836 260.3V293H387.436V241H390.736V254.2C392.536 250.533 394.936 247.533 397.936 245.2C401.003 242.867 404.203 241.5 407.536 241.1C408.203 241.033 408.803 241 409.336 241C409.936 241 410.403 241 410.736 241V244.2ZM439.798 294C436.331 294 433.031 293.3 429.898 291.9C426.831 290.433 424.131 288.467 421.798 286C419.531 283.467 417.731 280.567 416.398 277.3C415.131 273.967 414.498 270.433 414.498 266.7C414.498 261.833 415.598 257.4 417.798 253.4C419.998 249.4 422.964 246.2 426.698 243.8C430.498 241.4 434.731 240.2 439.398 240.2C444.198 240.2 448.464 241.433 452.198 243.9C455.998 246.3 459.031 249.533 461.298 253.6C463.564 257.6 464.698 262.067 464.698 267C464.698 267.267 464.698 267.533 464.698 267.8C464.698 268.067 464.664 268.333 464.598 268.6H417.998C418.331 272.8 419.498 276.6 421.498 280C423.564 283.4 426.198 286.1 429.398 288.1C432.664 290.1 436.198 291.1 439.998 291.1C443.798 291.1 447.364 290.133 450.698 288.2C454.031 286.2 456.398 283.667 457.798 280.6L460.898 281.4C459.898 283.8 458.331 285.967 456.198 287.9C454.064 289.833 451.564 291.333 448.698 292.4C445.898 293.467 442.931 294 439.798 294ZM417.898 265.7H461.298C461.031 261.3 459.898 257.433 457.898 254.1C455.964 250.7 453.398 248.033 450.198 246.1C446.998 244.167 443.431 243.2 439.498 243.2C435.631 243.2 432.098 244.167 428.898 246.1C425.764 248.033 423.198 250.7 421.198 254.1C419.264 257.5 418.164 261.367 417.898 265.7Z" fill="white"/>
<rect x="39" y="105" width="18" height="71" fill="#FFC300"/>
<rect x="39" y="222" width="18" height="71" fill="#FFC300"/>
<path d="M39.792 350.52C39.792 349.752 39.924 348.996 40.188 348.252C40.464 347.496 40.86 346.812 41.376 346.2C41.892 345.576 42.522 345.078 43.266 344.706C44.022 344.334 44.88 344.148 45.84 344.148C46.98 344.148 47.952 344.412 48.756 344.94C49.56 345.456 50.16 346.122 50.556 346.938L49.8 347.37C49.5 346.782 49.128 346.314 48.684 345.966C48.252 345.618 47.784 345.372 47.28 345.228C46.776 345.072 46.272 344.994 45.768 344.994C44.964 344.994 44.244 345.156 43.608 345.48C42.984 345.804 42.456 346.236 42.024 346.776C41.592 347.316 41.262 347.916 41.034 348.576C40.818 349.236 40.71 349.902 40.71 350.574C40.71 351.33 40.842 352.05 41.106 352.734C41.37 353.406 41.73 354.006 42.186 354.534C42.654 355.062 43.194 355.482 43.806 355.794C44.43 356.106 45.102 356.262 45.822 356.262C46.338 356.262 46.86 356.178 47.388 356.01C47.928 355.83 48.432 355.56 48.9 355.2C49.368 354.828 49.746 354.348 50.034 353.76L50.826 354.138C50.55 354.774 50.136 355.314 49.584 355.758C49.032 356.202 48.42 356.538 47.748 356.766C47.076 356.994 46.41 357.108 45.75 357.108C44.886 357.108 44.088 356.922 43.356 356.55C42.624 356.166 41.988 355.662 41.448 355.038C40.92 354.402 40.512 353.694 40.224 352.914C39.936 352.122 39.792 351.324 39.792 350.52ZM60.4817 357H59.5817V351.78C59.5817 350.628 59.3837 349.764 58.9877 349.188C58.5917 348.6 58.0157 348.306 57.2597 348.306C56.7677 348.306 56.2757 348.432 55.7837 348.684C55.2917 348.936 54.8657 349.284 54.5057 349.728C54.1457 350.16 53.8877 350.652 53.7317 351.204V357H52.8317V343.86H53.7317V349.872C54.1157 349.14 54.6497 348.558 55.3337 348.126C56.0177 347.694 56.7437 347.478 57.5117 347.478C58.0397 347.478 58.4897 347.574 58.8617 347.766C59.2337 347.958 59.5397 348.234 59.7797 348.594C60.0197 348.954 60.1937 349.386 60.3017 349.89C60.4217 350.394 60.4817 350.97 60.4817 351.618V357ZM67.1268 357.18C66.4668 357.18 65.8548 357.054 65.2908 356.802C64.7388 356.55 64.2588 356.202 63.8508 355.758C63.4428 355.302 63.1248 354.78 62.8968 354.192C62.6688 353.604 62.5548 352.986 62.5548 352.338C62.5548 351.678 62.6688 351.06 62.8968 350.484C63.1248 349.896 63.4428 349.38 63.8508 348.936C64.2708 348.48 64.7568 348.126 65.3088 347.874C65.8728 347.61 66.4788 347.478 67.1268 347.478C67.7748 347.478 68.3748 347.61 68.9268 347.874C69.4788 348.126 69.9648 348.48 70.3848 348.936C70.8048 349.38 71.1288 349.896 71.3568 350.484C71.5848 351.06 71.6988 351.678 71.6988 352.338C71.6988 352.986 71.5848 353.604 71.3568 354.192C71.1288 354.78 70.8048 355.302 70.3848 355.758C69.9768 356.202 69.4908 356.55 68.9268 356.802C68.3748 357.054 67.7748 357.18 67.1268 357.18ZM63.4548 352.374C63.4548 353.106 63.6168 353.778 63.9408 354.39C64.2768 354.99 64.7208 355.47 65.2728 355.83C65.8248 356.19 66.4368 356.37 67.1088 356.37C67.7808 356.37 68.3928 356.19 68.9448 355.83C69.5088 355.458 69.9528 354.966 70.2768 354.354C70.6128 353.73 70.7808 353.052 70.7808 352.32C70.7808 351.588 70.6128 350.916 70.2768 350.304C69.9528 349.692 69.5088 349.206 68.9448 348.846C68.3928 348.474 67.7868 348.288 67.1268 348.288C66.4548 348.288 65.8428 348.474 65.2908 348.846C64.7388 349.218 64.2948 349.71 63.9588 350.322C63.6228 350.934 63.4548 351.618 63.4548 352.374ZM77.7792 357.18C77.1192 357.18 76.5072 357.054 75.9432 356.802C75.3912 356.55 74.9112 356.202 74.5032 355.758C74.0952 355.302 73.7772 354.78 73.5492 354.192C73.3212 353.604 73.2072 352.986 73.2072 352.338C73.2072 351.678 73.3212 351.06 73.5492 350.484C73.7772 349.896 74.0952 349.38 74.5032 348.936C74.9232 348.48 75.4092 348.126 75.9612 347.874C76.5252 347.61 77.1312 347.478 77.7792 347.478C78.4272 347.478 79.0272 347.61 79.5792 347.874C80.1312 348.126 80.6172 348.48 81.0372 348.936C81.4572 349.38 81.7812 349.896 82.0092 350.484C82.2372 351.06 82.3512 351.678 82.3512 352.338C82.3512 352.986 82.2372 353.604 82.0092 354.192C81.7812 354.78 81.4572 355.302 81.0372 355.758C80.6292 356.202 80.1432 356.55 79.5792 356.802C79.0272 357.054 78.4272 357.18 77.7792 357.18ZM74.1072 352.374C74.1072 353.106 74.2692 353.778 74.5932 354.39C74.9292 354.99 75.3732 355.47 75.9252 355.83C76.4772 356.19 77.0892 356.37 77.7612 356.37C78.4332 356.37 79.0452 356.19 79.5972 355.83C80.1612 355.458 80.6052 354.966 80.9292 354.354C81.2652 353.73 81.4332 353.052 81.4332 352.32C81.4332 351.588 81.2652 350.916 80.9292 350.304C80.6052 349.692 80.1612 349.206 79.5972 348.846C79.0452 348.474 78.4392 348.288 77.7792 348.288C77.1072 348.288 76.4952 348.474 75.9432 348.846C75.3912 349.218 74.9472 349.71 74.6112 350.322C74.2752 350.934 74.1072 351.618 74.1072 352.374ZM87.4595 357.18C86.7155 357.18 86.0255 357.054 85.3895 356.802C84.7535 356.55 84.1955 356.166 83.7155 355.65L84.1295 355.02C84.6455 355.512 85.1675 355.872 85.6955 356.1C86.2235 356.316 86.7995 356.424 87.4235 356.424C88.2275 356.424 88.8755 356.256 89.3675 355.92C89.8715 355.584 90.1235 355.116 90.1235 354.516C90.1235 354.108 90.0035 353.796 89.7635 353.58C89.5355 353.352 89.1995 353.172 88.7555 353.04C88.3235 352.896 87.7955 352.746 87.1715 352.59C86.5355 352.422 85.9955 352.248 85.5515 352.068C85.1195 351.888 84.7955 351.654 84.5795 351.366C84.3635 351.078 84.2555 350.688 84.2555 350.196C84.2555 349.584 84.4055 349.08 84.7055 348.684C85.0175 348.276 85.4315 347.976 85.9475 347.784C86.4755 347.58 87.0575 347.478 87.6935 347.478C88.4255 347.478 89.0615 347.598 89.6015 347.838C90.1535 348.078 90.5735 348.396 90.8615 348.792L90.3755 349.368C90.0755 348.984 89.6855 348.702 89.2055 348.522C88.7255 348.33 88.1975 348.234 87.6215 348.234C87.1895 348.234 86.7815 348.294 86.3975 348.414C86.0135 348.534 85.7015 348.732 85.4615 349.008C85.2335 349.272 85.1195 349.632 85.1195 350.088C85.1195 350.448 85.2035 350.73 85.3715 350.934C85.5515 351.138 85.8155 351.306 86.1635 351.438C86.5115 351.558 86.9435 351.69 87.4595 351.834C88.1915 352.014 88.8215 352.2 89.3495 352.392C89.8775 352.584 90.2855 352.836 90.5735 353.148C90.8615 353.448 91.0055 353.874 91.0055 354.426C91.0055 355.278 90.6815 355.95 90.0335 356.442C89.3855 356.934 88.5275 357.18 87.4595 357.18ZM97.0988 357.18C96.4388 357.18 95.8268 357.054 95.2628 356.802C94.6988 356.538 94.2068 356.184 93.7868 355.74C93.3788 355.284 93.0548 354.762 92.8148 354.174C92.5868 353.574 92.4728 352.944 92.4728 352.284C92.4728 351.396 92.6708 350.592 93.0668 349.872C93.4628 349.152 94.0088 348.576 94.7048 348.144C95.4008 347.7 96.1808 347.478 97.0448 347.478C97.9328 347.478 98.7188 347.7 99.4028 348.144C100.087 348.588 100.627 349.176 101.023 349.908C101.431 350.628 101.635 351.42 101.635 352.284C101.635 352.356 101.635 352.428 101.635 352.5C101.635 352.572 101.629 352.632 101.617 352.68H93.4088C93.4568 353.388 93.6548 354.03 94.0028 354.606C94.3508 355.182 94.7948 355.638 95.3348 355.974C95.8868 356.298 96.4868 356.46 97.1348 356.46C97.7828 356.46 98.3948 356.292 98.9708 355.956C99.5468 355.62 99.9488 355.188 100.177 354.66L100.969 354.876C100.789 355.32 100.501 355.716 100.105 356.064C99.7208 356.412 99.2648 356.688 98.7368 356.892C98.2208 357.084 97.6748 357.18 97.0988 357.18ZM93.3728 351.978H100.771C100.723 351.246 100.531 350.598 100.195 350.034C99.8588 349.47 99.4148 349.026 98.8628 348.702C98.3228 348.378 97.7228 348.216 97.0628 348.216C96.4028 348.216 95.8028 348.378 95.2628 348.702C94.7228 349.026 94.2848 349.47 93.9488 350.034C93.6128 350.598 93.4208 351.246 93.3728 351.978ZM107.464 354.3C107.464 353.736 107.632 353.25 107.968 352.842C108.304 352.422 108.766 352.098 109.354 351.87C109.942 351.63 110.62 351.51 111.388 351.51C111.868 351.51 112.366 351.552 112.882 351.636C113.398 351.72 113.86 351.834 114.268 351.978V351.096C114.268 350.232 114.016 349.542 113.512 349.026C113.02 348.51 112.336 348.252 111.46 348.252C110.992 348.252 110.506 348.348 110.002 348.54C109.498 348.732 108.982 349.008 108.454 349.368L108.076 348.72C108.688 348.312 109.276 348.006 109.84 347.802C110.416 347.586 110.986 347.478 111.55 347.478C112.666 347.478 113.548 347.808 114.196 348.468C114.844 349.128 115.168 350.028 115.168 351.168V355.812C115.168 355.956 115.198 356.064 115.258 356.136C115.33 356.208 115.432 356.25 115.564 356.262V357C115.456 357.012 115.366 357.018 115.294 357.018C115.222 357.018 115.162 357.018 115.114 357.018C114.886 356.982 114.706 356.886 114.574 356.73C114.454 356.574 114.388 356.4 114.376 356.208V355.47C113.944 356.01 113.386 356.43 112.702 356.73C112.03 357.03 111.322 357.18 110.578 357.18C109.99 357.18 109.456 357.054 108.976 356.802C108.508 356.55 108.136 356.208 107.86 355.776C107.596 355.332 107.464 354.84 107.464 354.3ZM113.908 355.074C114.028 354.918 114.118 354.768 114.178 354.624C114.238 354.48 114.268 354.348 114.268 354.228V352.68C113.836 352.512 113.386 352.386 112.918 352.302C112.45 352.218 111.97 352.176 111.478 352.176C110.542 352.176 109.78 352.362 109.192 352.734C108.616 353.106 108.328 353.61 108.328 354.246C108.328 354.642 108.43 355.008 108.634 355.344C108.838 355.68 109.12 355.95 109.48 356.154C109.852 356.358 110.278 356.46 110.758 356.46C111.43 356.46 112.048 356.334 112.612 356.082C113.188 355.818 113.62 355.482 113.908 355.074ZM125.556 357H124.656V351.78C124.656 350.58 124.482 349.704 124.134 349.152C123.798 348.588 123.258 348.306 122.514 348.306C121.986 348.306 121.464 348.432 120.948 348.684C120.444 348.936 120 349.284 119.616 349.728C119.244 350.16 118.974 350.652 118.806 351.204V357H117.906V347.64H118.752V349.872C119.004 349.392 119.34 348.978 119.76 348.63C120.18 348.27 120.648 347.988 121.164 347.784C121.68 347.58 122.214 347.478 122.766 347.478C123.282 347.478 123.714 347.574 124.062 347.766C124.422 347.946 124.71 348.21 124.926 348.558C125.154 348.906 125.316 349.338 125.412 349.854C125.508 350.37 125.556 350.958 125.556 351.618V357ZM132.126 354.3C132.126 353.736 132.294 353.25 132.63 352.842C132.966 352.422 133.428 352.098 134.016 351.87C134.604 351.63 135.282 351.51 136.05 351.51C136.53 351.51 137.028 351.552 137.544 351.636C138.06 351.72 138.522 351.834 138.93 351.978V351.096C138.93 350.232 138.678 349.542 138.174 349.026C137.682 348.51 136.998 348.252 136.122 348.252C135.654 348.252 135.168 348.348 134.664 348.54C134.16 348.732 133.644 349.008 133.116 349.368L132.738 348.72C133.35 348.312 133.938 348.006 134.502 347.802C135.078 347.586 135.648 347.478 136.212 347.478C137.328 347.478 138.21 347.808 138.858 348.468C139.506 349.128 139.83 350.028 139.83 351.168V355.812C139.83 355.956 139.86 356.064 139.92 356.136C139.992 356.208 140.094 356.25 140.226 356.262V357C140.118 357.012 140.028 357.018 139.956 357.018C139.884 357.018 139.824 357.018 139.776 357.018C139.548 356.982 139.368 356.886 139.236 356.73C139.116 356.574 139.05 356.4 139.038 356.208V355.47C138.606 356.01 138.048 356.43 137.364 356.73C136.692 357.03 135.984 357.18 135.24 357.18C134.652 357.18 134.118 357.054 133.638 356.802C133.17 356.55 132.798 356.208 132.522 355.776C132.258 355.332 132.126 354.84 132.126 354.3ZM138.57 355.074C138.69 354.918 138.78 354.768 138.84 354.624C138.9 354.48 138.93 354.348 138.93 354.228V352.68C138.498 352.512 138.048 352.386 137.58 352.302C137.112 352.218 136.632 352.176 136.14 352.176C135.204 352.176 134.442 352.362 133.854 352.734C133.278 353.106 132.99 353.61 132.99 354.246C132.99 354.642 133.092 355.008 133.296 355.344C133.5 355.68 133.782 355.95 134.142 356.154C134.514 356.358 134.94 356.46 135.42 356.46C136.092 356.46 136.71 356.334 137.274 356.082C137.85 355.818 138.282 355.482 138.57 355.074ZM150.218 357H149.318V351.78C149.318 350.58 149.144 349.704 148.796 349.152C148.46 348.588 147.92 348.306 147.176 348.306C146.648 348.306 146.126 348.432 145.61 348.684C145.106 348.936 144.662 349.284 144.278 349.728C143.906 350.16 143.636 350.652 143.468 351.204V357H142.568V347.64H143.414V349.872C143.666 349.392 144.002 348.978 144.422 348.63C144.842 348.27 145.31 347.988 145.826 347.784C146.342 347.58 146.876 347.478 147.428 347.478C147.944 347.478 148.376 347.574 148.724 347.766C149.084 347.946 149.372 348.21 149.588 348.558C149.816 348.906 149.978 349.338 150.074 349.854C150.17 350.37 150.218 350.958 150.218 351.618V357ZM160.589 357H159.689V351.78C159.689 350.58 159.515 349.704 159.167 349.152C158.831 348.588 158.291 348.306 157.547 348.306C157.019 348.306 156.497 348.432 155.981 348.684C155.477 348.936 155.033 349.284 154.649 349.728C154.277 350.16 154.007 350.652 153.839 351.204V357H152.939V347.64H153.785V349.872C154.037 349.392 154.373 348.978 154.793 348.63C155.213 348.27 155.681 347.988 156.197 347.784C156.713 347.58 157.247 347.478 157.799 347.478C158.315 347.478 158.747 347.574 159.095 347.766C159.455 347.946 159.743 348.21 159.959 348.558C160.187 348.906 160.349 349.338 160.445 349.854C160.541 350.37 160.589 350.958 160.589 351.618V357ZM163.22 353.04V347.64H164.12V352.914C164.12 354.078 164.312 354.948 164.696 355.524C165.092 356.088 165.686 356.37 166.478 356.37C167.006 356.37 167.51 356.256 167.99 356.028C168.482 355.788 168.914 355.458 169.286 355.038C169.658 354.606 169.934 354.108 170.114 353.544V347.64H171.014V355.812C171.014 355.956 171.044 356.064 171.104 356.136C171.176 356.208 171.272 356.25 171.392 356.262V357C171.272 357.012 171.176 357.018 171.104 357.018C171.044 357.018 170.99 357.012 170.942 357C170.738 356.976 170.57 356.892 170.438 356.748C170.306 356.592 170.234 356.406 170.222 356.19L170.204 354.786C169.796 355.53 169.232 356.118 168.512 356.55C167.804 356.97 167.036 357.18 166.208 357.18C165.224 357.18 164.48 356.832 163.976 356.136C163.472 355.44 163.22 354.408 163.22 353.04ZM173.101 354.3C173.101 353.736 173.269 353.25 173.605 352.842C173.941 352.422 174.403 352.098 174.991 351.87C175.579 351.63 176.257 351.51 177.025 351.51C177.505 351.51 178.003 351.552 178.519 351.636C179.035 351.72 179.497 351.834 179.905 351.978V351.096C179.905 350.232 179.653 349.542 179.149 349.026C178.657 348.51 177.973 348.252 177.097 348.252C176.629 348.252 176.143 348.348 175.639 348.54C175.135 348.732 174.619 349.008 174.091 349.368L173.713 348.72C174.325 348.312 174.913 348.006 175.477 347.802C176.053 347.586 176.623 347.478 177.187 347.478C178.303 347.478 179.185 347.808 179.833 348.468C180.481 349.128 180.805 350.028 180.805 351.168V355.812C180.805 355.956 180.835 356.064 180.895 356.136C180.967 356.208 181.069 356.25 181.201 356.262V357C181.093 357.012 181.003 357.018 180.931 357.018C180.859 357.018 180.799 357.018 180.751 357.018C180.523 356.982 180.343 356.886 180.211 356.73C180.091 356.574 180.025 356.4 180.013 356.208V355.47C179.581 356.01 179.023 356.43 178.339 356.73C177.667 357.03 176.959 357.18 176.215 357.18C175.627 357.18 175.093 357.054 174.613 356.802C174.145 356.55 173.773 356.208 173.497 355.776C173.233 355.332 173.101 354.84 173.101 354.3ZM179.545 355.074C179.665 354.918 179.755 354.768 179.815 354.624C179.875 354.48 179.905 354.348 179.905 354.228V352.68C179.473 352.512 179.023 352.386 178.555 352.302C178.087 352.218 177.607 352.176 177.115 352.176C176.179 352.176 175.417 352.362 174.829 352.734C174.253 353.106 173.965 353.61 173.965 354.246C173.965 354.642 174.067 355.008 174.271 355.344C174.475 355.68 174.757 355.95 175.117 356.154C175.489 356.358 175.915 356.46 176.395 356.46C177.067 356.46 177.685 356.334 178.249 356.082C178.825 355.818 179.257 355.482 179.545 355.074ZM183.615 343.86H184.533V355.146C184.533 355.578 184.623 355.878 184.803 356.046C184.983 356.202 185.217 356.28 185.505 356.28C185.697 356.28 185.895 356.262 186.099 356.226C186.303 356.19 186.483 356.142 186.639 356.082L186.819 356.82C186.615 356.892 186.363 356.958 186.063 357.018C185.763 357.078 185.505 357.108 185.289 357.108C184.785 357.108 184.377 356.958 184.065 356.658C183.765 356.346 183.615 355.932 183.615 355.416V343.86ZM192.261 357V347.64H193.161V357H192.261ZM192.261 345.516V343.86H193.161V345.516H192.261ZM203.638 357H202.738V351.78C202.738 350.58 202.564 349.704 202.216 349.152C201.88 348.588 201.34 348.306 200.596 348.306C200.068 348.306 199.546 348.432 199.03 348.684C198.526 348.936 198.082 349.284 197.698 349.728C197.326 350.16 197.056 350.652 196.888 351.204V357H195.988V347.64H196.834V349.872C197.086 349.392 197.422 348.978 197.842 348.63C198.262 348.27 198.73 347.988 199.246 347.784C199.762 347.58 200.296 347.478 200.848 347.478C201.364 347.478 201.796 347.574 202.144 347.766C202.504 347.946 202.792 348.21 203.008 348.558C203.236 348.906 203.398 349.338 203.494 349.854C203.59 350.37 203.638 350.958 203.638 351.618V357ZM210.337 357.18C209.689 357.18 209.083 357.054 208.519 356.802C207.955 356.538 207.463 356.184 207.043 355.74C206.623 355.284 206.293 354.762 206.053 354.174C205.825 353.586 205.711 352.956 205.711 352.284C205.711 351.384 205.909 350.574 206.305 349.854C206.701 349.134 207.247 348.558 207.943 348.126C208.639 347.694 209.431 347.478 210.319 347.478C211.171 347.478 211.921 347.676 212.569 348.072C213.217 348.456 213.703 348.984 214.027 349.656L213.145 349.944C212.869 349.428 212.473 349.026 211.957 348.738C211.453 348.438 210.895 348.288 210.283 348.288C209.599 348.288 208.981 348.462 208.429 348.81C207.877 349.158 207.433 349.638 207.097 350.25C206.773 350.85 206.611 351.528 206.611 352.284C206.611 353.028 206.779 353.712 207.115 354.336C207.451 354.96 207.895 355.458 208.447 355.83C209.011 356.19 209.629 356.37 210.301 356.37C210.733 356.37 211.153 356.292 211.561 356.136C211.981 355.968 212.341 355.752 212.641 355.488C212.953 355.224 213.157 354.942 213.253 354.642L214.135 354.894C213.979 355.338 213.709 355.734 213.325 356.082C212.941 356.418 212.491 356.688 211.975 356.892C211.471 357.084 210.925 357.18 210.337 357.18ZM220.004 357.18C219.344 357.18 218.732 357.054 218.168 356.802C217.616 356.55 217.136 356.202 216.728 355.758C216.32 355.302 216.002 354.78 215.774 354.192C215.546 353.604 215.432 352.986 215.432 352.338C215.432 351.678 215.546 351.06 215.774 350.484C216.002 349.896 216.32 349.38 216.728 348.936C217.148 348.48 217.634 348.126 218.186 347.874C218.75 347.61 219.356 347.478 220.004 347.478C220.652 347.478 221.252 347.61 221.804 347.874C222.356 348.126 222.842 348.48 223.262 348.936C223.682 349.38 224.006 349.896 224.234 350.484C224.462 351.06 224.576 351.678 224.576 352.338C224.576 352.986 224.462 353.604 224.234 354.192C224.006 354.78 223.682 355.302 223.262 355.758C222.854 356.202 222.368 356.55 221.804 356.802C221.252 357.054 220.652 357.18 220.004 357.18ZM216.332 352.374C216.332 353.106 216.494 353.778 216.818 354.39C217.154 354.99 217.598 355.47 218.15 355.83C218.702 356.19 219.314 356.37 219.986 356.37C220.658 356.37 221.27 356.19 221.822 355.83C222.386 355.458 222.83 354.966 223.154 354.354C223.49 353.73 223.658 353.052 223.658 352.32C223.658 351.588 223.49 350.916 223.154 350.304C222.83 349.692 222.386 349.206 221.822 348.846C221.27 348.474 220.664 348.288 220.004 348.288C219.332 348.288 218.72 348.474 218.168 348.846C217.616 349.218 217.172 349.71 216.836 350.322C216.5 350.934 216.332 351.618 216.332 352.374ZM240.484 357H239.584V351.78C239.584 350.592 239.398 349.716 239.026 349.152C238.666 348.588 238.108 348.306 237.352 348.306C236.584 348.306 235.9 348.582 235.3 349.134C234.712 349.674 234.298 350.37 234.058 351.222V357H233.158V351.78C233.158 350.58 232.978 349.704 232.618 349.152C232.258 348.588 231.7 348.306 230.944 348.306C230.176 348.306 229.492 348.576 228.892 349.116C228.304 349.644 227.884 350.34 227.632 351.204V357H226.732V347.64H227.578V349.872C227.974 349.104 228.484 348.516 229.108 348.108C229.732 347.688 230.416 347.478 231.16 347.478C231.94 347.478 232.576 347.712 233.068 348.18C233.572 348.636 233.872 349.248 233.968 350.016C234.412 349.176 234.94 348.546 235.552 348.126C236.164 347.694 236.86 347.478 237.64 347.478C238.156 347.478 238.588 347.574 238.936 347.766C239.296 347.946 239.59 348.216 239.818 348.576C240.058 348.924 240.226 349.356 240.322 349.872C240.43 350.388 240.484 350.97 240.484 351.618V357ZM247.181 357.18C246.521 357.18 245.909 357.054 245.345 356.802C244.781 356.538 244.289 356.184 243.869 355.74C243.461 355.284 243.137 354.762 242.897 354.174C242.669 353.574 242.555 352.944 242.555 352.284C242.555 351.396 242.753 350.592 243.149 349.872C243.545 349.152 244.091 348.576 244.787 348.144C245.483 347.7 246.263 347.478 247.127 347.478C248.015 347.478 248.801 347.7 249.485 348.144C250.169 348.588 250.709 349.176 251.105 349.908C251.513 350.628 251.717 351.42 251.717 352.284C251.717 352.356 251.717 352.428 251.717 352.5C251.717 352.572 251.711 352.632 251.699 352.68H243.491C243.539 353.388 243.737 354.03 244.085 354.606C244.433 355.182 244.877 355.638 245.417 355.974C245.969 356.298 246.569 356.46 247.217 356.46C247.865 356.46 248.477 356.292 249.053 355.956C249.629 355.62 250.031 355.188 250.259 354.66L251.051 354.876C250.871 355.32 250.583 355.716 250.187 356.064C249.803 356.412 249.347 356.688 248.819 356.892C248.303 357.084 247.757 357.18 247.181 357.18ZM243.455 351.978H250.853C250.805 351.246 250.613 350.598 250.277 350.034C249.941 349.47 249.497 349.026 248.945 348.702C248.405 348.378 247.805 348.216 247.145 348.216C246.485 348.216 245.885 348.378 245.345 348.702C244.805 349.026 244.367 349.47 244.031 350.034C243.695 350.598 243.503 351.246 243.455 351.978ZM258.392 343.86H259.31V355.146C259.31 355.578 259.4 355.878 259.58 356.046C259.76 356.202 259.994 356.28 260.282 356.28C260.474 356.28 260.672 356.262 260.876 356.226C261.08 356.19 261.26 356.142 261.416 356.082L261.596 356.82C261.392 356.892 261.14 356.958 260.84 357.018C260.54 357.078 260.282 357.108 260.066 357.108C259.562 357.108 259.154 356.958 258.842 356.658C258.542 356.346 258.392 355.932 258.392 355.416V343.86ZM266.956 357.18C266.296 357.18 265.684 357.054 265.12 356.802C264.556 356.538 264.064 356.184 263.644 355.74C263.236 355.284 262.912 354.762 262.672 354.174C262.444 353.574 262.33 352.944 262.33 352.284C262.33 351.396 262.528 350.592 262.924 349.872C263.32 349.152 263.866 348.576 264.562 348.144C265.258 347.7 266.038 347.478 266.902 347.478C267.79 347.478 268.576 347.7 269.26 348.144C269.944 348.588 270.484 349.176 270.88 349.908C271.288 350.628 271.492 351.42 271.492 352.284C271.492 352.356 271.492 352.428 271.492 352.5C271.492 352.572 271.486 352.632 271.474 352.68H263.266C263.314 353.388 263.512 354.03 263.86 354.606C264.208 355.182 264.652 355.638 265.192 355.974C265.744 356.298 266.344 356.46 266.992 356.46C267.64 356.46 268.252 356.292 268.828 355.956C269.404 355.62 269.806 355.188 270.034 354.66L270.826 354.876C270.646 355.32 270.358 355.716 269.962 356.064C269.578 356.412 269.122 356.688 268.594 356.892C268.078 357.084 267.532 357.18 266.956 357.18ZM263.23 351.978H270.628C270.58 351.246 270.388 350.598 270.052 350.034C269.716 349.47 269.272 349.026 268.72 348.702C268.18 348.378 267.58 348.216 266.92 348.216C266.26 348.216 265.66 348.378 265.12 348.702C264.58 349.026 264.142 349.47 263.806 350.034C263.47 350.598 263.278 351.246 263.23 351.978ZM276.106 357L272.2 347.64H273.154L276.592 356.046L280.048 347.64H280.948L277.042 357H276.106ZM286.398 357.18C285.738 357.18 285.126 357.054 284.562 356.802C283.998 356.538 283.506 356.184 283.086 355.74C282.678 355.284 282.354 354.762 282.114 354.174C281.886 353.574 281.772 352.944 281.772 352.284C281.772 351.396 281.97 350.592 282.366 349.872C282.762 349.152 283.308 348.576 284.004 348.144C284.7 347.7 285.48 347.478 286.344 347.478C287.232 347.478 288.018 347.7 288.702 348.144C289.386 348.588 289.926 349.176 290.322 349.908C290.73 350.628 290.934 351.42 290.934 352.284C290.934 352.356 290.934 352.428 290.934 352.5C290.934 352.572 290.928 352.632 290.916 352.68H282.708C282.756 353.388 282.954 354.03 283.302 354.606C283.65 355.182 284.094 355.638 284.634 355.974C285.186 356.298 285.786 356.46 286.434 356.46C287.082 356.46 287.694 356.292 288.27 355.956C288.846 355.62 289.248 355.188 289.476 354.66L290.268 354.876C290.088 355.32 289.8 355.716 289.404 356.064C289.02 356.412 288.564 356.688 288.036 356.892C287.52 357.084 286.974 357.18 286.398 357.18ZM282.672 351.978H290.07C290.022 351.246 289.83 350.598 289.494 350.034C289.158 349.47 288.714 349.026 288.162 348.702C287.622 348.378 287.022 348.216 286.362 348.216C285.702 348.216 285.102 348.378 284.562 348.702C284.022 349.026 283.584 349.47 283.248 350.034C282.912 350.598 282.72 351.246 282.672 351.978ZM292.986 343.86H293.904V355.146C293.904 355.578 293.994 355.878 294.174 356.046C294.354 356.202 294.588 356.28 294.876 356.28C295.068 356.28 295.266 356.262 295.47 356.226C295.674 356.19 295.854 356.142 296.01 356.082L296.19 356.82C295.986 356.892 295.734 356.958 295.434 357.018C295.134 357.078 294.876 357.108 294.66 357.108C294.156 357.108 293.748 356.958 293.436 356.658C293.136 356.346 292.986 355.932 292.986 355.416V343.86ZM300.859 354.3C300.859 353.736 301.027 353.25 301.363 352.842C301.699 352.422 302.161 352.098 302.749 351.87C303.337 351.63 304.015 351.51 304.783 351.51C305.263 351.51 305.761 351.552 306.277 351.636C306.793 351.72 307.255 351.834 307.663 351.978V351.096C307.663 350.232 307.411 349.542 306.907 349.026C306.415 348.51 305.731 348.252 304.855 348.252C304.387 348.252 303.901 348.348 303.397 348.54C302.893 348.732 302.377 349.008 301.849 349.368L301.471 348.72C302.083 348.312 302.671 348.006 303.235 347.802C303.811 347.586 304.381 347.478 304.945 347.478C306.061 347.478 306.943 347.808 307.591 348.468C308.239 349.128 308.563 350.028 308.563 351.168V355.812C308.563 355.956 308.593 356.064 308.653 356.136C308.725 356.208 308.827 356.25 308.959 356.262V357C308.851 357.012 308.761 357.018 308.689 357.018C308.617 357.018 308.557 357.018 308.509 357.018C308.281 356.982 308.101 356.886 307.969 356.73C307.849 356.574 307.783 356.4 307.771 356.208V355.47C307.339 356.01 306.781 356.43 306.097 356.73C305.425 357.03 304.717 357.18 303.973 357.18C303.385 357.18 302.851 357.054 302.371 356.802C301.903 356.55 301.531 356.208 301.255 355.776C300.991 355.332 300.859 354.84 300.859 354.3ZM307.303 355.074C307.423 354.918 307.513 354.768 307.573 354.624C307.633 354.48 307.663 354.348 307.663 354.228V352.68C307.231 352.512 306.781 352.386 306.313 352.302C305.845 352.218 305.365 352.176 304.873 352.176C303.937 352.176 303.175 352.362 302.587 352.734C302.011 353.106 301.723 353.61 301.723 354.246C301.723 354.642 301.825 355.008 302.029 355.344C302.233 355.68 302.515 355.95 302.875 356.154C303.247 356.358 303.673 356.46 304.153 356.46C304.825 356.46 305.443 356.334 306.007 356.082C306.583 355.818 307.015 355.482 307.303 355.074ZM318.95 357H318.05V351.78C318.05 350.58 317.876 349.704 317.528 349.152C317.192 348.588 316.652 348.306 315.908 348.306C315.38 348.306 314.858 348.432 314.342 348.684C313.838 348.936 313.394 349.284 313.01 349.728C312.638 350.16 312.368 350.652 312.2 351.204V357H311.3V347.64H312.146V349.872C312.398 349.392 312.734 348.978 313.154 348.63C313.574 348.27 314.042 347.988 314.558 347.784C315.074 347.58 315.608 347.478 316.16 347.478C316.676 347.478 317.108 347.574 317.456 347.766C317.816 347.946 318.104 348.21 318.32 348.558C318.548 348.906 318.71 349.338 318.806 349.854C318.902 350.37 318.95 350.958 318.95 351.618V357ZM321.024 352.338C321.024 351.462 321.21 350.658 321.582 349.926C321.954 349.194 322.464 348.606 323.112 348.162C323.76 347.706 324.498 347.478 325.326 347.478C326.142 347.478 326.862 347.694 327.486 348.126C328.122 348.558 328.62 349.074 328.98 349.674V343.86H329.88V355.812C329.88 355.956 329.91 356.064 329.97 356.136C330.042 356.208 330.138 356.25 330.258 356.262V357C330.066 357.024 329.922 357.03 329.826 357.018C329.61 356.982 329.43 356.88 329.286 356.712C329.142 356.544 329.07 356.364 329.07 356.172V355.128C328.686 355.752 328.17 356.25 327.522 356.622C326.874 356.994 326.208 357.18 325.524 357.18C324.876 357.18 324.276 357.048 323.724 356.784C323.172 356.508 322.692 356.142 322.284 355.686C321.888 355.23 321.576 354.714 321.348 354.138C321.132 353.562 321.024 352.962 321.024 352.338ZM328.98 353.85V350.772C328.812 350.316 328.542 349.902 328.17 349.53C327.798 349.146 327.378 348.846 326.91 348.63C326.442 348.402 325.98 348.288 325.524 348.288C324.984 348.288 324.492 348.402 324.048 348.63C323.616 348.858 323.238 349.164 322.914 349.548C322.602 349.932 322.362 350.37 322.194 350.862C322.026 351.342 321.942 351.84 321.942 352.356C321.942 352.884 322.038 353.394 322.23 353.886C322.422 354.366 322.686 354.798 323.022 355.182C323.37 355.554 323.766 355.848 324.21 356.064C324.666 356.268 325.158 356.37 325.686 356.37C326.01 356.37 326.352 356.304 326.712 356.172C327.084 356.04 327.432 355.86 327.756 355.632C328.092 355.392 328.368 355.122 328.584 354.822C328.812 354.51 328.944 354.186 328.98 353.85ZM340.321 357.18C339.577 357.18 338.887 357.054 338.251 356.802C337.615 356.55 337.057 356.166 336.577 355.65L336.991 355.02C337.507 355.512 338.029 355.872 338.557 356.1C339.085 356.316 339.661 356.424 340.285 356.424C341.089 356.424 341.737 356.256 342.229 355.92C342.733 355.584 342.985 355.116 342.985 354.516C342.985 354.108 342.865 353.796 342.625 353.58C342.397 353.352 342.061 353.172 341.617 353.04C341.185 352.896 340.657 352.746 340.033 352.59C339.397 352.422 338.857 352.248 338.413 352.068C337.981 351.888 337.657 351.654 337.441 351.366C337.225 351.078 337.117 350.688 337.117 350.196C337.117 349.584 337.267 349.08 337.567 348.684C337.879 348.276 338.293 347.976 338.809 347.784C339.337 347.58 339.919 347.478 340.555 347.478C341.287 347.478 341.923 347.598 342.463 347.838C343.015 348.078 343.435 348.396 343.723 348.792L343.237 349.368C342.937 348.984 342.547 348.702 342.067 348.522C341.587 348.33 341.059 348.234 340.483 348.234C340.051 348.234 339.643 348.294 339.259 348.414C338.875 348.534 338.563 348.732 338.323 349.008C338.095 349.272 337.981 349.632 337.981 350.088C337.981 350.448 338.065 350.73 338.233 350.934C338.413 351.138 338.677 351.306 339.025 351.438C339.373 351.558 339.805 351.69 340.321 351.834C341.053 352.014 341.683 352.2 342.211 352.392C342.739 352.584 343.147 352.836 343.435 353.148C343.723 353.448 343.867 353.874 343.867 354.426C343.867 355.278 343.543 355.95 342.895 356.442C342.247 356.934 341.389 357.18 340.321 357.18ZM349.96 357.18C349.3 357.18 348.688 357.054 348.124 356.802C347.56 356.538 347.068 356.184 346.648 355.74C346.24 355.284 345.916 354.762 345.676 354.174C345.448 353.574 345.334 352.944 345.334 352.284C345.334 351.396 345.532 350.592 345.928 349.872C346.324 349.152 346.87 348.576 347.566 348.144C348.262 347.7 349.042 347.478 349.906 347.478C350.794 347.478 351.58 347.7 352.264 348.144C352.948 348.588 353.488 349.176 353.884 349.908C354.292 350.628 354.496 351.42 354.496 352.284C354.496 352.356 354.496 352.428 354.496 352.5C354.496 352.572 354.49 352.632 354.478 352.68H346.27C346.318 353.388 346.516 354.03 346.864 354.606C347.212 355.182 347.656 355.638 348.196 355.974C348.748 356.298 349.348 356.46 349.996 356.46C350.644 356.46 351.256 356.292 351.832 355.956C352.408 355.62 352.81 355.188 353.038 354.66L353.83 354.876C353.65 355.32 353.362 355.716 352.966 356.064C352.582 356.412 352.126 356.688 351.598 356.892C351.082 357.084 350.536 357.18 349.96 357.18ZM346.234 351.978H353.632C353.584 351.246 353.392 350.598 353.056 350.034C352.72 349.47 352.276 349.026 351.724 348.702C351.184 348.378 350.584 348.216 349.924 348.216C349.264 348.216 348.664 348.378 348.124 348.702C347.584 349.026 347.146 349.47 346.81 350.034C346.474 350.598 346.282 351.246 346.234 351.978ZM360.454 357.18C359.794 357.18 359.182 357.054 358.618 356.802C358.054 356.538 357.562 356.184 357.142 355.74C356.734 355.284 356.41 354.762 356.17 354.174C355.942 353.574 355.828 352.944 355.828 352.284C355.828 351.396 356.026 350.592 356.422 349.872C356.818 349.152 357.364 348.576 358.06 348.144C358.756 347.7 359.536 347.478 360.4 347.478C361.288 347.478 362.074 347.7 362.758 348.144C363.442 348.588 363.982 349.176 364.378 349.908C364.786 350.628 364.99 351.42 364.99 352.284C364.99 352.356 364.99 352.428 364.99 352.5C364.99 352.572 364.984 352.632 364.972 352.68H356.764C356.812 353.388 357.01 354.03 357.358 354.606C357.706 355.182 358.15 355.638 358.69 355.974C359.242 356.298 359.842 356.46 360.49 356.46C361.138 356.46 361.75 356.292 362.326 355.956C362.902 355.62 363.304 355.188 363.532 354.66L364.324 354.876C364.144 355.32 363.856 355.716 363.46 356.064C363.076 356.412 362.62 356.688 362.092 356.892C361.576 357.084 361.03 357.18 360.454 357.18ZM356.728 351.978H364.126C364.078 351.246 363.886 350.598 363.55 350.034C363.214 349.47 362.77 349.026 362.218 348.702C361.678 348.378 361.078 348.216 360.418 348.216C359.758 348.216 359.158 348.378 358.618 348.702C358.078 349.026 357.64 349.47 357.304 350.034C356.968 350.598 356.776 351.246 356.728 351.978ZM379.243 357H378.343V351.78C378.343 350.628 378.145 349.764 377.749 349.188C377.353 348.6 376.777 348.306 376.021 348.306C375.529 348.306 375.037 348.432 374.545 348.684C374.053 348.936 373.627 349.284 373.267 349.728C372.907 350.16 372.649 350.652 372.493 351.204V357H371.593V343.86H372.493V349.872C372.877 349.14 373.411 348.558 374.095 348.126C374.779 347.694 375.505 347.478 376.273 347.478C376.801 347.478 377.251 347.574 377.623 347.766C377.995 347.958 378.301 348.234 378.541 348.594C378.781 348.954 378.955 349.386 379.063 349.89C379.183 350.394 379.243 350.97 379.243 351.618V357ZM385.889 357.18C385.229 357.18 384.617 357.054 384.053 356.802C383.501 356.55 383.021 356.202 382.613 355.758C382.205 355.302 381.887 354.78 381.659 354.192C381.431 353.604 381.317 352.986 381.317 352.338C381.317 351.678 381.431 351.06 381.659 350.484C381.887 349.896 382.205 349.38 382.613 348.936C383.033 348.48 383.519 348.126 384.071 347.874C384.635 347.61 385.241 347.478 385.889 347.478C386.537 347.478 387.137 347.61 387.689 347.874C388.241 348.126 388.727 348.48 389.147 348.936C389.567 349.38 389.891 349.896 390.119 350.484C390.347 351.06 390.461 351.678 390.461 352.338C390.461 352.986 390.347 353.604 390.119 354.192C389.891 354.78 389.567 355.302 389.147 355.758C388.739 356.202 388.253 356.55 387.689 356.802C387.137 357.054 386.537 357.18 385.889 357.18ZM382.217 352.374C382.217 353.106 382.379 353.778 382.703 354.39C383.039 354.99 383.483 355.47 384.035 355.83C384.587 356.19 385.199 356.37 385.871 356.37C386.543 356.37 387.155 356.19 387.707 355.83C388.271 355.458 388.715 354.966 389.039 354.354C389.375 353.73 389.543 353.052 389.543 352.32C389.543 351.588 389.375 350.916 389.039 350.304C388.715 349.692 388.271 349.206 387.707 348.846C387.155 348.474 386.549 348.288 385.889 348.288C385.217 348.288 384.605 348.474 384.053 348.846C383.501 349.218 383.057 349.71 382.721 350.322C382.385 350.934 382.217 351.618 382.217 352.374ZM404.145 347.64H405.045L400.995 357H400.203L398.133 352.122L396.063 357H395.271L391.221 347.64H392.103L395.685 356.01L397.611 351.438L396.045 347.658H396.855L398.133 350.736L399.393 347.658H400.221L398.655 351.438L400.581 356.01L404.145 347.64ZM410.988 343.86H411.906V355.146C411.906 355.578 411.996 355.878 412.176 356.046C412.356 356.202 412.59 356.28 412.878 356.28C413.07 356.28 413.268 356.262 413.472 356.226C413.676 356.19 413.856 356.142 414.012 356.082L414.192 356.82C413.988 356.892 413.736 356.958 413.436 357.018C413.136 357.078 412.878 357.108 412.662 357.108C412.158 357.108 411.75 356.958 411.438 356.658C411.138 356.346 410.988 355.932 410.988 355.416V343.86ZM419.498 357.18C418.838 357.18 418.226 357.054 417.662 356.802C417.11 356.55 416.63 356.202 416.222 355.758C415.814 355.302 415.496 354.78 415.268 354.192C415.04 353.604 414.926 352.986 414.926 352.338C414.926 351.678 415.04 351.06 415.268 350.484C415.496 349.896 415.814 349.38 416.222 348.936C416.642 348.48 417.128 348.126 417.68 347.874C418.244 347.61 418.85 347.478 419.498 347.478C420.146 347.478 420.746 347.61 421.298 347.874C421.85 348.126 422.336 348.48 422.756 348.936C423.176 349.38 423.5 349.896 423.728 350.484C423.956 351.06 424.07 351.678 424.07 352.338C424.07 352.986 423.956 353.604 423.728 354.192C423.5 354.78 423.176 355.302 422.756 355.758C422.348 356.202 421.862 356.55 421.298 356.802C420.746 357.054 420.146 357.18 419.498 357.18ZM415.826 352.374C415.826 353.106 415.988 353.778 416.312 354.39C416.648 354.99 417.092 355.47 417.644 355.83C418.196 356.19 418.808 356.37 419.48 356.37C420.152 356.37 420.764 356.19 421.316 355.83C421.88 355.458 422.324 354.966 422.648 354.354C422.984 353.73 423.152 353.052 423.152 352.32C423.152 351.588 422.984 350.916 422.648 350.304C422.324 349.692 421.88 349.206 421.316 348.846C420.764 348.474 420.158 348.288 419.498 348.288C418.826 348.288 418.214 348.474 417.662 348.846C417.11 349.218 416.666 349.71 416.33 350.322C415.994 350.934 415.826 351.618 415.826 352.374ZM433.876 357H432.976V351.78C432.976 350.58 432.802 349.704 432.454 349.152C432.118 348.588 431.578 348.306 430.834 348.306C430.306 348.306 429.784 348.432 429.268 348.684C428.764 348.936 428.32 349.284 427.936 349.728C427.564 350.16 427.294 350.652 427.126 351.204V357H426.226V347.64H427.072V349.872C427.324 349.392 427.66 348.978 428.08 348.63C428.5 348.27 428.968 347.988 429.484 347.784C430 347.58 430.534 347.478 431.086 347.478C431.602 347.478 432.034 347.574 432.382 347.766C432.742 347.946 433.03 348.21 433.246 348.558C433.474 348.906 433.636 349.338 433.732 349.854C433.828 350.37 433.876 350.958 433.876 351.618V357ZM440.377 357.144C439.741 357.144 439.147 357.012 438.595 356.748C438.055 356.484 437.587 356.124 437.191 355.668C436.807 355.2 436.501 354.684 436.273 354.12C436.057 353.544 435.949 352.95 435.949 352.338C435.949 351.702 436.051 351.09 436.255 350.502C436.471 349.914 436.771 349.398 437.155 348.954C437.551 348.498 438.013 348.138 438.541 347.874C439.069 347.61 439.657 347.478 440.305 347.478C441.121 347.478 441.829 347.694 442.429 348.126C443.041 348.546 443.557 349.062 443.977 349.674V347.64H444.805V357.18C444.805 358.02 444.601 358.728 444.193 359.304C443.785 359.88 443.245 360.306 442.573 360.582C441.901 360.87 441.175 361.014 440.395 361.014C439.303 361.014 438.433 360.816 437.785 360.42C437.149 360.024 436.633 359.502 436.237 358.854L436.849 358.44C437.221 359.064 437.725 359.526 438.361 359.826C438.997 360.126 439.675 360.276 440.395 360.276C441.031 360.276 441.613 360.156 442.141 359.916C442.681 359.688 443.107 359.34 443.419 358.872C443.743 358.416 443.905 357.852 443.905 357.18V355.128C443.533 355.74 443.023 356.232 442.375 356.604C441.739 356.964 441.073 357.144 440.377 357.144ZM440.593 356.37C440.989 356.37 441.373 356.298 441.745 356.154C442.117 356.01 442.459 355.818 442.771 355.578C443.083 355.326 443.341 355.05 443.545 354.75C443.749 354.45 443.869 354.15 443.905 353.85V350.772C443.725 350.292 443.449 349.866 443.077 349.494C442.717 349.11 442.309 348.816 441.853 348.612C441.397 348.396 440.929 348.288 440.449 348.288C439.885 348.288 439.381 348.408 438.937 348.648C438.493 348.888 438.115 349.206 437.803 349.602C437.503 349.986 437.269 350.424 437.101 350.916C436.945 351.396 436.867 351.876 436.867 352.356C436.867 352.896 436.963 353.406 437.155 353.886C437.347 354.366 437.611 354.798 437.947 355.182C438.295 355.554 438.691 355.848 439.135 356.064C439.591 356.268 440.077 356.37 440.593 356.37ZM40.404 387V377.64H41.304V387H40.404ZM40.404 375.516V373.86H41.304V375.516H40.404ZM48.3066 386.55C48.2466 386.574 48.1266 386.634 47.9466 386.73C47.7666 386.826 47.5386 386.916 47.2626 387C46.9866 387.072 46.6806 387.108 46.3446 387.108C46.0206 387.108 45.7146 387.048 45.4266 386.928C45.1506 386.796 44.9286 386.604 44.7606 386.352C44.5926 386.1 44.5086 385.794 44.5086 385.434V378.378H43.1946V377.64H44.5086V374.436H45.4086V377.64H47.5866V378.378H45.4086V385.218C45.4326 385.566 45.5586 385.83 45.7866 386.01C46.0146 386.178 46.2786 386.262 46.5786 386.262C46.9506 386.262 47.2746 386.202 47.5506 386.082C47.8266 385.95 47.9886 385.866 48.0366 385.83L48.3066 386.55ZM58.6952 386.55C58.6352 386.574 58.5152 386.634 58.3352 386.73C58.1552 386.826 57.9272 386.916 57.6512 387C57.3752 387.072 57.0692 387.108 56.7332 387.108C56.4092 387.108 56.1032 387.048 55.8152 386.928C55.5392 386.796 55.3172 386.604 55.1492 386.352C54.9812 386.1 54.8972 385.794 54.8972 385.434V378.378H53.5832V377.64H54.8972V374.436H55.7972V377.64H57.9752V378.378H55.7972V385.218C55.8212 385.566 55.9472 385.83 56.1752 386.01C56.4032 386.178 56.6672 386.262 56.9672 386.262C57.3392 386.262 57.6632 386.202 57.9392 386.082C58.2152 385.95 58.3772 385.866 58.4252 385.83L58.6952 386.55ZM59.5109 384.3C59.5109 383.736 59.6789 383.25 60.0149 382.842C60.3509 382.422 60.8129 382.098 61.4009 381.87C61.9889 381.63 62.6669 381.51 63.4349 381.51C63.9149 381.51 64.4129 381.552 64.9289 381.636C65.4449 381.72 65.9069 381.834 66.3149 381.978V381.096C66.3149 380.232 66.0629 379.542 65.5589 379.026C65.0669 378.51 64.3829 378.252 63.5069 378.252C63.0389 378.252 62.5529 378.348 62.0489 378.54C61.5449 378.732 61.0289 379.008 60.5009 379.368L60.1229 378.72C60.7349 378.312 61.3229 378.006 61.8869 377.802C62.4629 377.586 63.0329 377.478 63.5969 377.478C64.7129 377.478 65.5949 377.808 66.2429 378.468C66.8909 379.128 67.2149 380.028 67.2149 381.168V385.812C67.2149 385.956 67.2449 386.064 67.3049 386.136C67.3769 386.208 67.4789 386.25 67.6109 386.262V387C67.5029 387.012 67.4129 387.018 67.3409 387.018C67.2689 387.018 67.2089 387.018 67.1609 387.018C66.9329 386.982 66.7529 386.886 66.6209 386.73C66.5009 386.574 66.4349 386.4 66.4229 386.208V385.47C65.9909 386.01 65.4329 386.43 64.7489 386.73C64.0769 387.03 63.3689 387.18 62.6249 387.18C62.0369 387.18 61.5029 387.054 61.0229 386.802C60.5549 386.55 60.1829 386.208 59.9069 385.776C59.6429 385.332 59.5109 384.84 59.5109 384.3ZM65.9549 385.074C66.0749 384.918 66.1649 384.768 66.2249 384.624C66.2849 384.48 66.3149 384.348 66.3149 384.228V382.68C65.8829 382.512 65.4329 382.386 64.9649 382.302C64.4969 382.218 64.0169 382.176 63.5249 382.176C62.5889 382.176 61.8269 382.362 61.2389 382.734C60.6629 383.106 60.3749 383.61 60.3749 384.246C60.3749 384.642 60.4769 385.008 60.6809 385.344C60.8849 385.68 61.1669 385.95 61.5269 386.154C61.8989 386.358 62.3249 386.46 62.8049 386.46C63.4769 386.46 64.0949 386.334 64.6589 386.082C65.2349 385.818 65.6669 385.482 65.9549 385.074ZM76.7208 387L73.0668 381.996L70.8528 384.03V387H69.9528V373.86H70.8528V383.022L76.5588 377.658H77.5848L73.6788 381.456L77.7108 387H76.7208ZM82.8429 387.18C82.1829 387.18 81.5709 387.054 81.0069 386.802C80.4429 386.538 79.9509 386.184 79.5309 385.74C79.1229 385.284 78.7989 384.762 78.5589 384.174C78.3309 383.574 78.2169 382.944 78.2169 382.284C78.2169 381.396 78.4149 380.592 78.8109 379.872C79.2069 379.152 79.7529 378.576 80.4489 378.144C81.1449 377.7 81.9249 377.478 82.7889 377.478C83.6769 377.478 84.4629 377.7 85.1469 378.144C85.8309 378.588 86.3709 379.176 86.7669 379.908C87.1749 380.628 87.3789 381.42 87.3789 382.284C87.3789 382.356 87.3789 382.428 87.3789 382.5C87.3789 382.572 87.3729 382.632 87.3609 382.68H79.1529C79.2009 383.388 79.3989 384.03 79.7469 384.606C80.0949 385.182 80.5389 385.638 81.0789 385.974C81.6309 386.298 82.2309 386.46 82.8789 386.46C83.5269 386.46 84.1389 386.292 84.7149 385.956C85.2909 385.62 85.6929 385.188 85.9209 384.66L86.7129 384.876C86.5329 385.32 86.2449 385.716 85.8489 386.064C85.4649 386.412 85.0089 386.688 84.4809 386.892C83.9649 387.084 83.4189 387.18 82.8429 387.18ZM79.1169 381.978H86.5149C86.4669 381.246 86.2749 380.598 85.9389 380.034C85.6029 379.47 85.1589 379.026 84.6069 378.702C84.0669 378.378 83.4669 378.216 82.8069 378.216C82.1469 378.216 81.5469 378.378 81.0069 378.702C80.4669 379.026 80.0289 379.47 79.6929 380.034C79.3569 380.598 79.1649 381.246 79.1169 381.978ZM92.3111 387.18C91.5671 387.18 90.8771 387.054 90.2411 386.802C89.6051 386.55 89.0471 386.166 88.5671 385.65L88.9811 385.02C89.4971 385.512 90.0191 385.872 90.5471 386.1C91.0751 386.316 91.6511 386.424 92.2751 386.424C93.0791 386.424 93.7271 386.256 94.2191 385.92C94.7231 385.584 94.9751 385.116 94.9751 384.516C94.9751 384.108 94.8551 383.796 94.6151 383.58C94.3871 383.352 94.0511 383.172 93.6071 383.04C93.1751 382.896 92.6471 382.746 92.0231 382.59C91.3871 382.422 90.8471 382.248 90.4031 382.068C89.9711 381.888 89.6471 381.654 89.4311 381.366C89.2151 381.078 89.1071 380.688 89.1071 380.196C89.1071 379.584 89.2571 379.08 89.5571 378.684C89.8691 378.276 90.2831 377.976 90.7991 377.784C91.3271 377.58 91.9091 377.478 92.5451 377.478C93.2771 377.478 93.9131 377.598 94.4531 377.838C95.0051 378.078 95.4251 378.396 95.7131 378.792L95.2271 379.368C94.9271 378.984 94.5371 378.702 94.0571 378.522C93.5771 378.33 93.0491 378.234 92.4731 378.234C92.0411 378.234 91.6331 378.294 91.2491 378.414C90.8651 378.534 90.5531 378.732 90.3131 379.008C90.0851 379.272 89.9711 379.632 89.9711 380.088C89.9711 380.448 90.0551 380.73 90.2231 380.934C90.4031 381.138 90.6671 381.306 91.0151 381.438C91.3631 381.558 91.7951 381.69 92.3111 381.834C93.0431 382.014 93.6731 382.2 94.2011 382.392C94.7291 382.584 95.1371 382.836 95.4251 383.148C95.7131 383.448 95.8571 383.874 95.8571 384.426C95.8571 385.278 95.5331 385.95 94.8851 386.442C94.2371 386.934 93.3791 387.18 92.3111 387.18ZM103.009 387V378.378H101.695V377.64H103.009V377.334C103.009 376.578 103.117 375.924 103.333 375.372C103.549 374.82 103.855 374.4 104.251 374.112C104.647 373.824 105.115 373.68 105.655 373.68C106.015 373.68 106.363 373.734 106.699 373.842C107.035 373.95 107.311 374.094 107.527 374.274L107.203 374.922C107.047 374.778 106.843 374.67 106.591 374.598C106.339 374.514 106.081 374.472 105.817 374.472C105.205 374.472 104.731 374.718 104.395 375.21C104.071 375.69 103.909 376.392 103.909 377.316V377.64H106.573V378.378H103.909V387H103.009ZM111.881 387.18C111.221 387.18 110.609 387.054 110.045 386.802C109.493 386.55 109.013 386.202 108.605 385.758C108.197 385.302 107.879 384.78 107.651 384.192C107.423 383.604 107.309 382.986 107.309 382.338C107.309 381.678 107.423 381.06 107.651 380.484C107.879 379.896 108.197 379.38 108.605 378.936C109.025 378.48 109.511 378.126 110.063 377.874C110.627 377.61 111.233 377.478 111.881 377.478C112.529 377.478 113.129 377.61 113.681 377.874C114.233 378.126 114.719 378.48 115.139 378.936C115.559 379.38 115.883 379.896 116.111 380.484C116.339 381.06 116.453 381.678 116.453 382.338C116.453 382.986 116.339 383.604 116.111 384.192C115.883 384.78 115.559 385.302 115.139 385.758C114.731 386.202 114.245 386.55 113.681 386.802C113.129 387.054 112.529 387.18 111.881 387.18ZM108.209 382.374C108.209 383.106 108.371 383.778 108.695 384.39C109.031 384.99 109.475 385.47 110.027 385.83C110.579 386.19 111.191 386.37 111.863 386.37C112.535 386.37 113.147 386.19 113.699 385.83C114.263 385.458 114.707 384.966 115.031 384.354C115.367 383.73 115.535 383.052 115.535 382.32C115.535 381.588 115.367 380.916 115.031 380.304C114.707 379.692 114.263 379.206 113.699 378.846C113.147 378.474 112.541 378.288 111.881 378.288C111.209 378.288 110.597 378.474 110.045 378.846C109.493 379.218 109.049 379.71 108.713 380.322C108.377 380.934 108.209 381.618 108.209 382.374ZM123.037 378.45C122.197 378.474 121.459 378.726 120.823 379.206C120.199 379.674 119.761 380.322 119.509 381.15V387H118.609V377.64H119.473V379.944C119.797 379.284 120.229 378.75 120.769 378.342C121.309 377.922 121.879 377.682 122.479 377.622C122.599 377.61 122.707 377.604 122.803 377.604C122.899 377.604 122.977 377.604 123.037 377.604V378.45ZM129.048 390.168C129.24 390.18 129.408 390.18 129.552 390.168C129.708 390.168 129.822 390.144 129.894 390.096C130.002 390.06 130.11 389.964 130.218 389.808C130.338 389.664 130.494 389.37 130.686 388.926C130.878 388.494 131.148 387.852 131.496 387L127.32 377.64H128.274L131.982 386.046L135.42 377.64H136.338L131.208 389.952C131.136 390.144 131.034 390.312 130.902 390.456C130.782 390.612 130.632 390.732 130.452 390.816C130.272 390.912 130.056 390.966 129.804 390.978C129.696 390.99 129.582 390.996 129.462 390.996C129.342 391.008 129.204 391.008 129.048 390.996V390.168ZM141.746 387.18C141.086 387.18 140.474 387.054 139.91 386.802C139.358 386.55 138.878 386.202 138.47 385.758C138.062 385.302 137.744 384.78 137.516 384.192C137.288 383.604 137.174 382.986 137.174 382.338C137.174 381.678 137.288 381.06 137.516 380.484C137.744 379.896 138.062 379.38 138.47 378.936C138.89 378.48 139.376 378.126 139.928 377.874C140.492 377.61 141.098 377.478 141.746 377.478C142.394 377.478 142.994 377.61 143.546 377.874C144.098 378.126 144.584 378.48 145.004 378.936C145.424 379.38 145.748 379.896 145.976 380.484C146.204 381.06 146.318 381.678 146.318 382.338C146.318 382.986 146.204 383.604 145.976 384.192C145.748 384.78 145.424 385.302 145.004 385.758C144.596 386.202 144.11 386.55 143.546 386.802C142.994 387.054 142.394 387.18 141.746 387.18ZM138.074 382.374C138.074 383.106 138.236 383.778 138.56 384.39C138.896 384.99 139.34 385.47 139.892 385.83C140.444 386.19 141.056 386.37 141.728 386.37C142.4 386.37 143.012 386.19 143.564 385.83C144.128 385.458 144.572 384.966 144.896 384.354C145.232 383.73 145.4 383.052 145.4 382.32C145.4 381.588 145.232 380.916 144.896 380.304C144.572 379.692 144.128 379.206 143.564 378.846C143.012 378.474 142.406 378.288 141.746 378.288C141.074 378.288 140.462 378.474 139.91 378.846C139.358 379.218 138.914 379.71 138.578 380.322C138.242 380.934 138.074 381.618 138.074 382.374ZM148.384 383.04V377.64H149.284V382.914C149.284 384.078 149.476 384.948 149.86 385.524C150.256 386.088 150.85 386.37 151.642 386.37C152.17 386.37 152.674 386.256 153.154 386.028C153.646 385.788 154.078 385.458 154.45 385.038C154.822 384.606 155.098 384.108 155.278 383.544V377.64H156.178V385.812C156.178 385.956 156.208 386.064 156.268 386.136C156.34 386.208 156.436 386.25 156.556 386.262V387C156.436 387.012 156.34 387.018 156.268 387.018C156.208 387.018 156.154 387.012 156.106 387C155.902 386.976 155.734 386.892 155.602 386.748C155.47 386.592 155.398 386.406 155.386 386.19L155.368 384.786C154.96 385.53 154.396 386.118 153.676 386.55C152.968 386.97 152.2 387.18 151.372 387.18C150.388 387.18 149.644 386.832 149.14 386.136C148.636 385.44 148.384 384.408 148.384 383.04ZM167.838 386.55C167.778 386.574 167.658 386.634 167.478 386.73C167.298 386.826 167.07 386.916 166.794 387C166.518 387.072 166.212 387.108 165.876 387.108C165.552 387.108 165.246 387.048 164.958 386.928C164.682 386.796 164.46 386.604 164.292 386.352C164.124 386.1 164.04 385.794 164.04 385.434V378.378H162.726V377.64H164.04V374.436H164.94V377.64H167.118V378.378H164.94V385.218C164.964 385.566 165.09 385.83 165.318 386.01C165.546 386.178 165.81 386.262 166.11 386.262C166.482 386.262 166.806 386.202 167.082 386.082C167.358 385.95 167.52 385.866 167.568 385.83L167.838 386.55ZM173.176 387.18C172.516 387.18 171.904 387.054 171.34 386.802C170.788 386.55 170.308 386.202 169.9 385.758C169.492 385.302 169.174 384.78 168.946 384.192C168.718 383.604 168.604 382.986 168.604 382.338C168.604 381.678 168.718 381.06 168.946 380.484C169.174 379.896 169.492 379.38 169.9 378.936C170.32 378.48 170.806 378.126 171.358 377.874C171.922 377.61 172.528 377.478 173.176 377.478C173.824 377.478 174.424 377.61 174.976 377.874C175.528 378.126 176.014 378.48 176.434 378.936C176.854 379.38 177.178 379.896 177.406 380.484C177.634 381.06 177.748 381.678 177.748 382.338C177.748 382.986 177.634 383.604 177.406 384.192C177.178 384.78 176.854 385.302 176.434 385.758C176.026 386.202 175.54 386.55 174.976 386.802C174.424 387.054 173.824 387.18 173.176 387.18ZM169.504 382.374C169.504 383.106 169.666 383.778 169.99 384.39C170.326 384.99 170.77 385.47 171.322 385.83C171.874 386.19 172.486 386.37 173.158 386.37C173.83 386.37 174.442 386.19 174.994 385.83C175.558 385.458 176.002 384.966 176.326 384.354C176.662 383.73 176.83 383.052 176.83 382.32C176.83 381.588 176.662 380.916 176.326 380.304C176.002 379.692 175.558 379.206 174.994 378.846C174.442 378.474 173.836 378.288 173.176 378.288C172.504 378.288 171.892 378.474 171.34 378.846C170.788 379.218 170.344 379.71 170.008 380.322C169.672 380.934 169.504 381.618 169.504 382.374ZM188.901 387.18C188.169 387.18 187.485 386.988 186.849 386.604C186.213 386.208 185.715 385.716 185.355 385.128V387H184.527V373.86H185.427V379.674C185.871 379.026 186.393 378.498 186.993 378.09C187.605 377.682 188.307 377.478 189.099 377.478C189.771 377.478 190.365 377.616 190.881 377.892C191.409 378.168 191.859 378.54 192.231 379.008C192.603 379.476 192.885 379.998 193.077 380.574C193.281 381.15 193.383 381.744 193.383 382.356C193.383 382.992 193.269 383.604 193.041 384.192C192.813 384.768 192.495 385.284 192.087 385.74C191.679 386.184 191.205 386.538 190.665 386.802C190.125 387.054 189.537 387.18 188.901 387.18ZM188.721 386.37C189.273 386.37 189.777 386.262 190.233 386.046C190.689 385.818 191.079 385.512 191.403 385.128C191.739 384.744 191.997 384.312 192.177 383.832C192.369 383.352 192.465 382.86 192.465 382.356C192.465 381.648 192.315 380.988 192.015 380.376C191.715 379.752 191.295 379.248 190.755 378.864C190.215 378.48 189.591 378.288 188.883 378.288C188.355 378.288 187.869 378.408 187.425 378.648C186.981 378.876 186.591 379.176 186.255 379.548C185.931 379.92 185.655 380.328 185.427 380.772V383.868C185.475 384.216 185.607 384.546 185.823 384.858C186.039 385.158 186.309 385.422 186.633 385.65C186.969 385.866 187.317 386.04 187.677 386.172C188.049 386.304 188.397 386.37 188.721 386.37ZM199.527 387.18C198.867 387.18 198.255 387.054 197.691 386.802C197.127 386.538 196.635 386.184 196.215 385.74C195.807 385.284 195.483 384.762 195.243 384.174C195.015 383.574 194.901 382.944 194.901 382.284C194.901 381.396 195.099 380.592 195.495 379.872C195.891 379.152 196.437 378.576 197.133 378.144C197.829 377.7 198.609 377.478 199.473 377.478C200.361 377.478 201.147 377.7 201.831 378.144C202.515 378.588 203.055 379.176 203.451 379.908C203.859 380.628 204.063 381.42 204.063 382.284C204.063 382.356 204.063 382.428 204.063 382.5C204.063 382.572 204.057 382.632 204.045 382.68H195.837C195.885 383.388 196.083 384.03 196.431 384.606C196.779 385.182 197.223 385.638 197.763 385.974C198.315 386.298 198.915 386.46 199.563 386.46C200.211 386.46 200.823 386.292 201.399 385.956C201.975 385.62 202.377 385.188 202.605 384.66L203.397 384.876C203.217 385.32 202.929 385.716 202.533 386.064C202.149 386.412 201.693 386.688 201.165 386.892C200.649 387.084 200.103 387.18 199.527 387.18ZM195.801 381.978H203.199C203.151 381.246 202.959 380.598 202.623 380.034C202.287 379.47 201.843 379.026 201.291 378.702C200.751 378.378 200.151 378.216 199.491 378.216C198.831 378.216 198.231 378.378 197.691 378.702C197.151 379.026 196.713 379.47 196.377 380.034C196.041 380.598 195.849 381.246 195.801 381.978ZM210.021 387.18C209.373 387.18 208.767 387.054 208.203 386.802C207.639 386.538 207.147 386.184 206.727 385.74C206.307 385.284 205.977 384.762 205.737 384.174C205.509 383.586 205.395 382.956 205.395 382.284C205.395 381.384 205.593 380.574 205.989 379.854C206.385 379.134 206.931 378.558 207.627 378.126C208.323 377.694 209.115 377.478 210.003 377.478C210.855 377.478 211.605 377.676 212.253 378.072C212.901 378.456 213.387 378.984 213.711 379.656L212.829 379.944C212.553 379.428 212.157 379.026 211.641 378.738C211.137 378.438 210.579 378.288 209.967 378.288C209.283 378.288 208.665 378.462 208.113 378.81C207.561 379.158 207.117 379.638 206.781 380.25C206.457 380.85 206.295 381.528 206.295 382.284C206.295 383.028 206.463 383.712 206.799 384.336C207.135 384.96 207.579 385.458 208.131 385.83C208.695 386.19 209.313 386.37 209.985 386.37C210.417 386.37 210.837 386.292 211.245 386.136C211.665 385.968 212.025 385.752 212.325 385.488C212.637 385.224 212.841 384.942 212.937 384.642L213.819 384.894C213.663 385.338 213.393 385.734 213.009 386.082C212.625 386.418 212.175 386.688 211.659 386.892C211.155 387.084 210.609 387.18 210.021 387.18ZM219.687 387.18C219.027 387.18 218.415 387.054 217.851 386.802C217.299 386.55 216.819 386.202 216.411 385.758C216.003 385.302 215.685 384.78 215.457 384.192C215.229 383.604 215.115 382.986 215.115 382.338C215.115 381.678 215.229 381.06 215.457 380.484C215.685 379.896 216.003 379.38 216.411 378.936C216.831 378.48 217.317 378.126 217.869 377.874C218.433 377.61 219.039 377.478 219.687 377.478C220.335 377.478 220.935 377.61 221.487 377.874C222.039 378.126 222.525 378.48 222.945 378.936C223.365 379.38 223.689 379.896 223.917 380.484C224.145 381.06 224.259 381.678 224.259 382.338C224.259 382.986 224.145 383.604 223.917 384.192C223.689 384.78 223.365 385.302 222.945 385.758C222.537 386.202 222.051 386.55 221.487 386.802C220.935 387.054 220.335 387.18 219.687 387.18ZM216.015 382.374C216.015 383.106 216.177 383.778 216.501 384.39C216.837 384.99 217.281 385.47 217.833 385.83C218.385 386.19 218.997 386.37 219.669 386.37C220.341 386.37 220.953 386.19 221.505 385.83C222.069 385.458 222.513 384.966 222.837 384.354C223.173 383.73 223.341 383.052 223.341 382.32C223.341 381.588 223.173 380.916 222.837 380.304C222.513 379.692 222.069 379.206 221.505 378.846C220.953 378.474 220.347 378.288 219.687 378.288C219.015 378.288 218.403 378.474 217.851 378.846C217.299 379.218 216.855 379.71 216.519 380.322C216.183 380.934 216.015 381.618 216.015 382.374ZM240.168 387H239.268V381.78C239.268 380.592 239.082 379.716 238.71 379.152C238.35 378.588 237.792 378.306 237.036 378.306C236.268 378.306 235.584 378.582 234.984 379.134C234.396 379.674 233.982 380.37 233.742 381.222V387H232.842V381.78C232.842 380.58 232.662 379.704 232.302 379.152C231.942 378.588 231.384 378.306 230.628 378.306C229.86 378.306 229.176 378.576 228.576 379.116C227.988 379.644 227.568 380.34 227.316 381.204V387H226.416V377.64H227.262V379.872C227.658 379.104 228.168 378.516 228.792 378.108C229.416 377.688 230.1 377.478 230.844 377.478C231.624 377.478 232.26 377.712 232.752 378.18C233.256 378.636 233.556 379.248 233.652 380.016C234.096 379.176 234.624 378.546 235.236 378.126C235.848 377.694 236.544 377.478 237.324 377.478C237.84 377.478 238.272 377.574 238.62 377.766C238.98 377.946 239.274 378.216 239.502 378.576C239.742 378.924 239.91 379.356 240.006 379.872C240.114 380.388 240.168 380.97 240.168 381.618V387ZM246.864 387.18C246.204 387.18 245.592 387.054 245.028 386.802C244.464 386.538 243.972 386.184 243.552 385.74C243.144 385.284 242.82 384.762 242.58 384.174C242.352 383.574 242.238 382.944 242.238 382.284C242.238 381.396 242.436 380.592 242.832 379.872C243.228 379.152 243.774 378.576 244.47 378.144C245.166 377.7 245.946 377.478 246.81 377.478C247.698 377.478 248.484 377.7 249.168 378.144C249.852 378.588 250.392 379.176 250.788 379.908C251.196 380.628 251.4 381.42 251.4 382.284C251.4 382.356 251.4 382.428 251.4 382.5C251.4 382.572 251.394 382.632 251.382 382.68H243.174C243.222 383.388 243.42 384.03 243.768 384.606C244.116 385.182 244.56 385.638 245.1 385.974C245.652 386.298 246.252 386.46 246.9 386.46C247.548 386.46 248.16 386.292 248.736 385.956C249.312 385.62 249.714 385.188 249.942 384.66L250.734 384.876C250.554 385.32 250.266 385.716 249.87 386.064C249.486 386.412 249.03 386.688 248.502 386.892C247.986 387.084 247.44 387.18 246.864 387.18ZM243.138 381.978H250.536C250.488 381.246 250.296 380.598 249.96 380.034C249.624 379.47 249.18 379.026 248.628 378.702C248.088 378.378 247.488 378.216 246.828 378.216C246.168 378.216 245.568 378.378 245.028 378.702C244.488 379.026 244.05 379.47 243.714 380.034C243.378 380.598 243.186 381.246 243.138 381.978ZM257.23 384.3C257.23 383.736 257.398 383.25 257.734 382.842C258.07 382.422 258.532 382.098 259.12 381.87C259.708 381.63 260.386 381.51 261.154 381.51C261.634 381.51 262.132 381.552 262.648 381.636C263.164 381.72 263.626 381.834 264.034 381.978V381.096C264.034 380.232 263.782 379.542 263.278 379.026C262.786 378.51 262.102 378.252 261.226 378.252C260.758 378.252 260.272 378.348 259.768 378.54C259.264 378.732 258.748 379.008 258.22 379.368L257.842 378.72C258.454 378.312 259.042 378.006 259.606 377.802C260.182 377.586 260.752 377.478 261.316 377.478C262.432 377.478 263.314 377.808 263.962 378.468C264.61 379.128 264.934 380.028 264.934 381.168V385.812C264.934 385.956 264.964 386.064 265.024 386.136C265.096 386.208 265.198 386.25 265.33 386.262V387C265.222 387.012 265.132 387.018 265.06 387.018C264.988 387.018 264.928 387.018 264.88 387.018C264.652 386.982 264.472 386.886 264.34 386.73C264.22 386.574 264.154 386.4 264.142 386.208V385.47C263.71 386.01 263.152 386.43 262.468 386.73C261.796 387.03 261.088 387.18 260.344 387.18C259.756 387.18 259.222 387.054 258.742 386.802C258.274 386.55 257.902 386.208 257.626 385.776C257.362 385.332 257.23 384.84 257.23 384.3ZM263.674 385.074C263.794 384.918 263.884 384.768 263.944 384.624C264.004 384.48 264.034 384.348 264.034 384.228V382.68C263.602 382.512 263.152 382.386 262.684 382.302C262.216 382.218 261.736 382.176 261.244 382.176C260.308 382.176 259.546 382.362 258.958 382.734C258.382 383.106 258.094 383.61 258.094 384.246C258.094 384.642 258.196 385.008 258.4 385.344C258.604 385.68 258.886 385.95 259.246 386.154C259.618 386.358 260.044 386.46 260.524 386.46C261.196 386.46 261.814 386.334 262.378 386.082C262.954 385.818 263.386 385.482 263.674 385.074ZM276.669 387.18C275.937 387.18 275.253 386.988 274.617 386.604C273.981 386.208 273.483 385.716 273.123 385.128V387H272.295V373.86H273.195V379.674C273.639 379.026 274.161 378.498 274.761 378.09C275.373 377.682 276.075 377.478 276.867 377.478C277.539 377.478 278.133 377.616 278.649 377.892C279.177 378.168 279.627 378.54 279.999 379.008C280.371 379.476 280.653 379.998 280.845 380.574C281.049 381.15 281.151 381.744 281.151 382.356C281.151 382.992 281.037 383.604 280.809 384.192C280.581 384.768 280.263 385.284 279.855 385.74C279.447 386.184 278.973 386.538 278.433 386.802C277.893 387.054 277.305 387.18 276.669 387.18ZM276.489 386.37C277.041 386.37 277.545 386.262 278.001 386.046C278.457 385.818 278.847 385.512 279.171 385.128C279.507 384.744 279.765 384.312 279.945 383.832C280.137 383.352 280.233 382.86 280.233 382.356C280.233 381.648 280.083 380.988 279.783 380.376C279.483 379.752 279.063 379.248 278.523 378.864C277.983 378.48 277.359 378.288 276.651 378.288C276.123 378.288 275.637 378.408 275.193 378.648C274.749 378.876 274.359 379.176 274.023 379.548C273.699 379.92 273.423 380.328 273.195 380.772V383.868C273.243 384.216 273.375 384.546 273.591 384.858C273.807 385.158 274.077 385.422 274.401 385.65C274.737 385.866 275.085 386.04 275.445 386.172C275.817 386.304 276.165 386.37 276.489 386.37ZM283.316 387V377.64H284.216V387H283.316ZM283.316 375.516V373.86H284.216V375.516H283.316ZM287.115 373.86H288.033V385.146C288.033 385.578 288.123 385.878 288.303 386.046C288.483 386.202 288.717 386.28 289.005 386.28C289.197 386.28 289.395 386.262 289.599 386.226C289.803 386.19 289.983 386.142 290.139 386.082L290.319 386.82C290.115 386.892 289.863 386.958 289.563 387.018C289.263 387.078 289.005 387.108 288.789 387.108C288.285 387.108 287.877 386.958 287.565 386.658C287.265 386.346 287.115 385.932 287.115 385.416V373.86ZM291.773 373.86H292.691V385.146C292.691 385.578 292.781 385.878 292.961 386.046C293.141 386.202 293.375 386.28 293.663 386.28C293.855 386.28 294.053 386.262 294.257 386.226C294.461 386.19 294.641 386.142 294.797 386.082L294.977 386.82C294.773 386.892 294.521 386.958 294.221 387.018C293.921 387.078 293.663 387.108 293.447 387.108C292.943 387.108 292.535 386.958 292.223 386.658C291.923 386.346 291.773 385.932 291.773 385.416V373.86ZM296.359 387V377.64H297.259V387H296.359ZM296.359 375.516V373.86H297.259V375.516H296.359ZM304.01 387.18C303.35 387.18 302.738 387.054 302.174 386.802C301.622 386.55 301.142 386.202 300.734 385.758C300.326 385.302 300.008 384.78 299.78 384.192C299.552 383.604 299.438 382.986 299.438 382.338C299.438 381.678 299.552 381.06 299.78 380.484C300.008 379.896 300.326 379.38 300.734 378.936C301.154 378.48 301.64 378.126 302.192 377.874C302.756 377.61 303.362 377.478 304.01 377.478C304.658 377.478 305.258 377.61 305.81 377.874C306.362 378.126 306.848 378.48 307.268 378.936C307.688 379.38 308.012 379.896 308.24 380.484C308.468 381.06 308.582 381.678 308.582 382.338C308.582 382.986 308.468 383.604 308.24 384.192C308.012 384.78 307.688 385.302 307.268 385.758C306.86 386.202 306.374 386.55 305.81 386.802C305.258 387.054 304.658 387.18 304.01 387.18ZM300.338 382.374C300.338 383.106 300.5 383.778 300.824 384.39C301.16 384.99 301.604 385.47 302.156 385.83C302.708 386.19 303.32 386.37 303.992 386.37C304.664 386.37 305.276 386.19 305.828 385.83C306.392 385.458 306.836 384.966 307.16 384.354C307.496 383.73 307.664 383.052 307.664 382.32C307.664 381.588 307.496 380.916 307.16 380.304C306.836 379.692 306.392 379.206 305.828 378.846C305.276 378.474 304.67 378.288 304.01 378.288C303.338 378.288 302.726 378.474 302.174 378.846C301.622 379.218 301.178 379.71 300.842 380.322C300.506 380.934 300.338 381.618 300.338 382.374ZM318.388 387H317.488V381.78C317.488 380.58 317.314 379.704 316.966 379.152C316.63 378.588 316.09 378.306 315.346 378.306C314.818 378.306 314.296 378.432 313.78 378.684C313.276 378.936 312.832 379.284 312.448 379.728C312.076 380.16 311.806 380.652 311.638 381.204V387H310.738V377.64H311.584V379.872C311.836 379.392 312.172 378.978 312.592 378.63C313.012 378.27 313.48 377.988 313.996 377.784C314.512 377.58 315.046 377.478 315.598 377.478C316.114 377.478 316.546 377.574 316.894 377.766C317.254 377.946 317.542 378.21 317.758 378.558C317.986 378.906 318.148 379.338 318.244 379.854C318.34 380.37 318.388 380.958 318.388 381.618V387ZM320.335 384.3C320.335 383.736 320.503 383.25 320.839 382.842C321.175 382.422 321.637 382.098 322.225 381.87C322.813 381.63 323.491 381.51 324.259 381.51C324.739 381.51 325.237 381.552 325.753 381.636C326.269 381.72 326.731 381.834 327.139 381.978V381.096C327.139 380.232 326.887 379.542 326.383 379.026C325.891 378.51 325.207 378.252 324.331 378.252C323.863 378.252 323.377 378.348 322.873 378.54C322.369 378.732 321.853 379.008 321.325 379.368L320.947 378.72C321.559 378.312 322.147 378.006 322.711 377.802C323.287 377.586 323.857 377.478 324.421 377.478C325.537 377.478 326.419 377.808 327.067 378.468C327.715 379.128 328.039 380.028 328.039 381.168V385.812C328.039 385.956 328.069 386.064 328.129 386.136C328.201 386.208 328.303 386.25 328.435 386.262V387C328.327 387.012 328.237 387.018 328.165 387.018C328.093 387.018 328.033 387.018 327.985 387.018C327.757 386.982 327.577 386.886 327.445 386.73C327.325 386.574 327.259 386.4 327.247 386.208V385.47C326.815 386.01 326.257 386.43 325.573 386.73C324.901 387.03 324.193 387.18 323.449 387.18C322.861 387.18 322.327 387.054 321.847 386.802C321.379 386.55 321.007 386.208 320.731 385.776C320.467 385.332 320.335 384.84 320.335 384.3ZM326.779 385.074C326.899 384.918 326.989 384.768 327.049 384.624C327.109 384.48 327.139 384.348 327.139 384.228V382.68C326.707 382.512 326.257 382.386 325.789 382.302C325.321 382.218 324.841 382.176 324.349 382.176C323.413 382.176 322.651 382.362 322.063 382.734C321.487 383.106 321.199 383.61 321.199 384.246C321.199 384.642 321.301 385.008 321.505 385.344C321.709 385.68 321.991 385.95 322.351 386.154C322.723 386.358 323.149 386.46 323.629 386.46C324.301 386.46 324.919 386.334 325.483 386.082C326.059 385.818 326.491 385.482 326.779 385.074ZM330.777 387V377.64H331.677V387H330.777ZM330.777 375.516V373.86H331.677V375.516H330.777ZM338.932 378.45C338.092 378.474 337.354 378.726 336.718 379.206C336.094 379.674 335.656 380.322 335.404 381.15V387H334.504V377.64H335.368V379.944C335.692 379.284 336.124 378.75 336.664 378.342C337.204 377.922 337.774 377.682 338.374 377.622C338.494 377.61 338.602 377.604 338.698 377.604C338.794 377.604 338.872 377.604 338.932 377.604V378.45ZM344.247 387.18C343.587 387.18 342.975 387.054 342.411 386.802C341.847 386.538 341.355 386.184 340.935 385.74C340.527 385.284 340.203 384.762 339.963 384.174C339.735 383.574 339.621 382.944 339.621 382.284C339.621 381.396 339.819 380.592 340.215 379.872C340.611 379.152 341.157 378.576 341.853 378.144C342.549 377.7 343.329 377.478 344.193 377.478C345.081 377.478 345.867 377.7 346.551 378.144C347.235 378.588 347.775 379.176 348.171 379.908C348.579 380.628 348.783 381.42 348.783 382.284C348.783 382.356 348.783 382.428 348.783 382.5C348.783 382.572 348.777 382.632 348.765 382.68H340.557C340.605 383.388 340.803 384.03 341.151 384.606C341.499 385.182 341.943 385.638 342.483 385.974C343.035 386.298 343.635 386.46 344.283 386.46C344.931 386.46 345.543 386.292 346.119 385.956C346.695 385.62 347.097 385.188 347.325 384.66L348.117 384.876C347.937 385.32 347.649 385.716 347.253 386.064C346.869 386.412 346.413 386.688 345.885 386.892C345.369 387.084 344.823 387.18 344.247 387.18ZM340.521 381.978H347.919C347.871 381.246 347.679 380.598 347.343 380.034C347.007 379.47 346.563 379.026 346.011 378.702C345.471 378.378 344.871 378.216 344.211 378.216C343.551 378.216 342.951 378.378 342.411 378.702C341.871 379.026 341.433 379.47 341.097 380.034C340.761 380.598 340.569 381.246 340.521 381.978ZM351.087 383.076V374.094H352.005V383.076H351.087ZM351.087 387V385.164H352.005V387H351.087Z" fill="white"/>
<path d="M364.048 433.076C363.928 432.94 363.788 432.82 363.628 432.716C363.468 432.604 363.288 432.508 363.088 432.428C362.888 432.348 362.672 432.284 362.44 432.236C362.216 432.188 361.976 432.164 361.72 432.164C360.976 432.164 360.428 432.308 360.076 432.596C359.732 432.876 359.56 433.26 359.56 433.748C359.56 434.084 359.64 434.348 359.8 434.54C359.968 434.732 360.228 434.888 360.58 435.008C360.932 435.128 361.38 435.252 361.924 435.38C362.532 435.508 363.056 435.66 363.496 435.836C363.936 436.012 364.276 436.252 364.516 436.556C364.756 436.852 364.876 437.256 364.876 437.768C364.876 438.16 364.8 438.5 364.648 438.788C364.496 439.076 364.284 439.316 364.012 439.508C363.74 439.7 363.416 439.844 363.04 439.94C362.664 440.028 362.252 440.072 361.804 440.072C361.364 440.072 360.94 440.028 360.532 439.94C360.132 439.844 359.752 439.708 359.392 439.532C359.032 439.348 358.696 439.116 358.384 438.836L358.804 438.152C358.956 438.312 359.136 438.464 359.344 438.608C359.56 438.744 359.796 438.868 360.052 438.98C360.316 439.092 360.596 439.18 360.892 439.244C361.196 439.3 361.508 439.328 361.828 439.328C362.508 439.328 363.036 439.204 363.412 438.956C363.796 438.708 363.988 438.34 363.988 437.852C363.988 437.5 363.892 437.22 363.7 437.012C363.508 436.796 363.22 436.62 362.836 436.484C362.452 436.348 361.98 436.216 361.42 436.088C360.828 435.952 360.328 435.8 359.92 435.632C359.512 435.464 359.204 435.244 358.996 434.972C358.796 434.692 358.696 434.324 358.696 433.868C358.696 433.34 358.824 432.896 359.08 432.536C359.344 432.168 359.704 431.892 360.16 431.708C360.616 431.516 361.14 431.42 361.732 431.42C362.108 431.42 362.456 431.46 362.776 431.54C363.104 431.612 363.404 431.72 363.676 431.864C363.956 432.008 364.216 432.188 364.456 432.404L364.048 433.076ZM368.901 440.12C368.445 440.12 368.025 440.036 367.641 439.868C367.265 439.692 366.933 439.452 366.645 439.148C366.365 438.844 366.145 438.496 365.985 438.104C365.833 437.712 365.757 437.296 365.757 436.856C365.757 436.264 365.889 435.724 366.153 435.236C366.417 434.748 366.785 434.36 367.257 434.072C367.729 433.784 368.273 433.64 368.889 433.64C369.473 433.64 369.989 433.776 370.437 434.048C370.885 434.312 371.217 434.672 371.433 435.128L370.641 435.38C370.465 435.06 370.217 434.812 369.897 434.636C369.585 434.452 369.237 434.36 368.853 434.36C368.437 434.36 368.057 434.468 367.713 434.684C367.369 434.9 367.093 435.196 366.885 435.572C366.685 435.948 366.585 436.376 366.585 436.856C366.585 437.328 366.689 437.756 366.897 438.14C367.105 438.524 367.381 438.832 367.725 439.064C368.069 439.288 368.449 439.4 368.865 439.4C369.137 439.4 369.397 439.352 369.645 439.256C369.901 439.16 370.121 439.032 370.305 438.872C370.497 438.704 370.625 438.524 370.689 438.332L371.493 438.572C371.381 438.868 371.193 439.136 370.929 439.376C370.673 439.608 370.369 439.792 370.017 439.928C369.673 440.056 369.301 440.12 368.901 440.12ZM375.895 434.468C375.351 434.484 374.871 434.636 374.455 434.924C374.047 435.212 373.759 435.608 373.591 436.112V440H372.775V433.748H373.543V435.248C373.759 434.808 374.043 434.452 374.395 434.18C374.755 433.908 375.135 433.756 375.535 433.724C375.615 433.716 375.683 433.712 375.739 433.712C375.803 433.712 375.855 433.716 375.895 433.724V434.468ZM379.447 440.12C378.999 440.12 378.583 440.036 378.199 439.868C377.823 439.692 377.495 439.456 377.215 439.16C376.943 438.856 376.731 438.512 376.579 438.128C376.427 437.736 376.351 437.324 376.351 436.892C376.351 436.444 376.427 436.028 376.579 435.644C376.731 435.252 376.947 434.908 377.227 434.612C377.507 434.308 377.835 434.072 378.211 433.904C378.595 433.728 379.011 433.64 379.459 433.64C379.907 433.64 380.319 433.728 380.695 433.904C381.071 434.072 381.399 434.308 381.679 434.612C381.959 434.908 382.175 435.252 382.327 435.644C382.479 436.028 382.555 436.444 382.555 436.892C382.555 437.324 382.479 437.736 382.327 438.128C382.175 438.512 381.959 438.856 381.679 439.16C381.407 439.456 381.079 439.692 380.695 439.868C380.319 440.036 379.903 440.12 379.447 440.12ZM377.179 436.904C377.179 437.368 377.279 437.792 377.479 438.176C377.687 438.552 377.963 438.852 378.307 439.076C378.651 439.292 379.031 439.4 379.447 439.4C379.863 439.4 380.243 439.288 380.587 439.064C380.931 438.84 381.207 438.536 381.415 438.152C381.623 437.76 381.727 437.336 381.727 436.88C381.727 436.416 381.623 435.992 381.415 435.608C381.207 435.224 380.931 434.92 380.587 434.696C380.243 434.472 379.863 434.36 379.447 434.36C379.031 434.36 378.651 434.476 378.307 434.708C377.971 434.94 377.699 435.248 377.491 435.632C377.283 436.008 377.179 436.432 377.179 436.904ZM383.956 431.24H384.772V438.584C384.772 438.896 384.828 439.1 384.94 439.196C385.052 439.292 385.188 439.34 385.348 439.34C385.492 439.34 385.636 439.324 385.78 439.292C385.924 439.26 386.048 439.228 386.152 439.196L386.296 439.856C386.144 439.92 385.956 439.972 385.732 440.012C385.516 440.052 385.328 440.072 385.168 440.072C384.8 440.072 384.504 439.964 384.28 439.748C384.064 439.532 383.956 439.236 383.956 438.86V431.24ZM387.225 431.24H388.041V438.584C388.041 438.896 388.097 439.1 388.209 439.196C388.321 439.292 388.457 439.34 388.617 439.34C388.761 439.34 388.905 439.324 389.049 439.292C389.193 439.26 389.317 439.228 389.421 439.196L389.565 439.856C389.413 439.92 389.225 439.972 389.001 440.012C388.785 440.052 388.597 440.072 388.437 440.072C388.069 440.072 387.773 439.964 387.549 439.748C387.333 439.532 387.225 439.236 387.225 438.86V431.24ZM396.154 439.7C396.09 439.724 395.99 439.768 395.854 439.832C395.718 439.896 395.554 439.952 395.362 440C395.17 440.048 394.962 440.072 394.738 440.072C394.506 440.072 394.286 440.028 394.078 439.94C393.878 439.852 393.718 439.72 393.598 439.544C393.478 439.36 393.418 439.136 393.418 438.872V434.396H392.554V433.748H393.418V431.636H394.234V433.748H395.674V434.396H394.234V438.644C394.25 438.868 394.33 439.036 394.474 439.148C394.626 439.26 394.798 439.316 394.99 439.316C395.214 439.316 395.418 439.28 395.602 439.208C395.786 439.128 395.898 439.072 395.938 439.04L396.154 439.7ZM399.732 440.12C399.284 440.12 398.868 440.036 398.484 439.868C398.108 439.692 397.78 439.456 397.5 439.16C397.228 438.856 397.016 438.512 396.864 438.128C396.712 437.736 396.636 437.324 396.636 436.892C396.636 436.444 396.712 436.028 396.864 435.644C397.016 435.252 397.232 434.908 397.512 434.612C397.792 434.308 398.12 434.072 398.496 433.904C398.88 433.728 399.296 433.64 399.744 433.64C400.192 433.64 400.604 433.728 400.98 433.904C401.356 434.072 401.684 434.308 401.964 434.612C402.244 434.908 402.46 435.252 402.612 435.644C402.764 436.028 402.84 436.444 402.84 436.892C402.84 437.324 402.764 437.736 402.612 438.128C402.46 438.512 402.244 438.856 401.964 439.16C401.692 439.456 401.364 439.692 400.98 439.868C400.604 440.036 400.188 440.12 399.732 440.12ZM397.464 436.904C397.464 437.368 397.564 437.792 397.764 438.176C397.972 438.552 398.248 438.852 398.592 439.076C398.936 439.292 399.316 439.4 399.732 439.4C400.148 439.4 400.528 439.288 400.872 439.064C401.216 438.84 401.492 438.536 401.7 438.152C401.908 437.76 402.012 437.336 402.012 436.88C402.012 436.416 401.908 435.992 401.7 435.608C401.492 435.224 401.216 434.92 400.872 434.696C400.528 434.472 400.148 434.36 399.732 434.36C399.316 434.36 398.936 434.476 398.592 434.708C398.256 434.94 397.984 435.248 397.776 435.632C397.568 436.008 397.464 436.432 397.464 436.904ZM409.963 440.12C409.515 440.12 409.099 440.036 408.715 439.868C408.331 439.692 407.999 439.456 407.719 439.16C407.439 438.856 407.219 438.508 407.059 438.116C406.907 437.724 406.831 437.304 406.831 436.856C406.831 436.272 406.963 435.736 407.227 435.248C407.499 434.76 407.871 434.372 408.343 434.084C408.815 433.788 409.351 433.64 409.951 433.64C410.567 433.64 411.103 433.788 411.559 434.084C412.023 434.38 412.387 434.772 412.651 435.26C412.915 435.74 413.047 436.268 413.047 436.844C413.047 436.908 413.047 436.972 413.047 437.036C413.047 437.092 413.043 437.136 413.035 437.168H407.683C407.723 437.616 407.847 438.016 408.055 438.368C408.271 438.712 408.547 438.988 408.883 439.196C409.227 439.396 409.599 439.496 409.999 439.496C410.407 439.496 410.791 439.392 411.151 439.184C411.519 438.976 411.775 438.704 411.919 438.368L412.627 438.56C412.499 438.856 412.303 439.124 412.039 439.364C411.775 439.604 411.463 439.792 411.103 439.928C410.751 440.056 410.371 440.12 409.963 440.12ZM407.659 436.58H412.279C412.247 436.124 412.123 435.724 411.907 435.38C411.699 435.036 411.423 434.768 411.079 434.576C410.743 434.376 410.371 434.276 409.963 434.276C409.555 434.276 409.183 434.376 408.847 434.576C408.511 434.768 408.235 435.04 408.019 435.392C407.811 435.736 407.691 436.132 407.659 436.58ZM414.264 433.748L416.1 436.196L416.196 436.376L416.292 436.196L418.116 433.748H419.04L416.664 436.892L419.04 440H418.116L416.292 437.564L416.196 437.396L416.1 437.564L414.276 440H413.352L415.716 436.892L413.352 433.748H414.264ZM423.311 440.12C422.791 440.12 422.323 439.984 421.907 439.712C421.499 439.44 421.175 439.104 420.935 438.704V442.556H420.119V433.748H420.851V434.96C421.099 434.568 421.431 434.252 421.847 434.012C422.263 433.764 422.707 433.64 423.179 433.64C423.611 433.64 424.007 433.732 424.367 433.916C424.727 434.092 425.039 434.332 425.303 434.636C425.567 434.94 425.771 435.288 425.915 435.68C426.067 436.064 426.143 436.464 426.143 436.88C426.143 437.464 426.023 438.004 425.783 438.5C425.551 438.988 425.223 439.38 424.799 439.676C424.375 439.972 423.879 440.12 423.311 440.12ZM423.083 439.4C423.427 439.4 423.735 439.332 424.007 439.196C424.279 439.052 424.511 438.86 424.703 438.62C424.903 438.38 425.055 438.112 425.159 437.816C425.263 437.512 425.315 437.2 425.315 436.88C425.315 436.544 425.255 436.224 425.135 435.92C425.023 435.616 424.859 435.348 424.643 435.116C424.427 434.884 424.179 434.7 423.899 434.564C423.619 434.428 423.315 434.36 422.987 434.36C422.779 434.36 422.563 434.4 422.339 434.48C422.115 434.56 421.899 434.676 421.691 434.828C421.491 434.972 421.323 435.136 421.187 435.32C421.051 435.504 420.967 435.7 420.935 435.908V437.828C421.063 438.124 421.235 438.392 421.451 438.632C421.667 438.864 421.915 439.052 422.195 439.196C422.483 439.332 422.779 439.4 423.083 439.4ZM427.561 431.24H428.377V438.584C428.377 438.896 428.433 439.1 428.545 439.196C428.657 439.292 428.793 439.34 428.953 439.34C429.097 439.34 429.241 439.324 429.385 439.292C429.529 439.26 429.653 439.228 429.757 439.196L429.901 439.856C429.749 439.92 429.561 439.972 429.337 440.012C429.121 440.052 428.933 440.072 428.773 440.072C428.405 440.072 428.109 439.964 427.885 439.748C427.669 439.532 427.561 439.236 427.561 438.86V431.24ZM433.459 440.12C433.011 440.12 432.595 440.036 432.211 439.868C431.835 439.692 431.507 439.456 431.227 439.16C430.955 438.856 430.743 438.512 430.591 438.128C430.439 437.736 430.363 437.324 430.363 436.892C430.363 436.444 430.439 436.028 430.591 435.644C430.743 435.252 430.959 434.908 431.239 434.612C431.519 434.308 431.847 434.072 432.223 433.904C432.607 433.728 433.023 433.64 433.471 433.64C433.919 433.64 434.331 433.728 434.707 433.904C435.083 434.072 435.411 434.308 435.691 434.612C435.971 434.908 436.187 435.252 436.339 435.644C436.491 436.028 436.567 436.444 436.567 436.892C436.567 437.324 436.491 437.736 436.339 438.128C436.187 438.512 435.971 438.856 435.691 439.16C435.419 439.456 435.091 439.692 434.707 439.868C434.331 440.036 433.915 440.12 433.459 440.12ZM431.191 436.904C431.191 437.368 431.291 437.792 431.491 438.176C431.699 438.552 431.975 438.852 432.319 439.076C432.663 439.292 433.043 439.4 433.459 439.4C433.875 439.4 434.255 439.288 434.599 439.064C434.943 438.84 435.219 438.536 435.427 438.152C435.635 437.76 435.739 437.336 435.739 436.88C435.739 436.416 435.635 435.992 435.427 435.608C435.219 435.224 434.943 434.92 434.599 434.696C434.255 434.472 433.875 434.36 433.459 434.36C433.043 434.36 432.663 434.476 432.319 434.708C431.983 434.94 431.711 435.248 431.503 435.632C431.295 436.008 431.191 436.432 431.191 436.904ZM441.051 434.468C440.507 434.484 440.027 434.636 439.611 434.924C439.203 435.212 438.915 435.608 438.747 436.112V440H437.931V433.748H438.699V435.248C438.915 434.808 439.199 434.452 439.551 434.18C439.911 433.908 440.291 433.756 440.691 433.724C440.771 433.716 440.839 433.712 440.895 433.712C440.959 433.712 441.011 433.716 441.051 433.724V434.468ZM444.639 440.12C444.191 440.12 443.775 440.036 443.391 439.868C443.007 439.692 442.675 439.456 442.395 439.16C442.115 438.856 441.895 438.508 441.735 438.116C441.583 437.724 441.507 437.304 441.507 436.856C441.507 436.272 441.639 435.736 441.903 435.248C442.175 434.76 442.547 434.372 443.019 434.084C443.491 433.788 444.027 433.64 444.627 433.64C445.243 433.64 445.779 433.788 446.235 434.084C446.699 434.38 447.063 434.772 447.327 435.26C447.591 435.74 447.723 436.268 447.723 436.844C447.723 436.908 447.723 436.972 447.723 437.036C447.723 437.092 447.719 437.136 447.711 437.168H442.359C442.399 437.616 442.523 438.016 442.731 438.368C442.947 438.712 443.223 438.988 443.559 439.196C443.903 439.396 444.275 439.496 444.675 439.496C445.083 439.496 445.467 439.392 445.827 439.184C446.195 438.976 446.451 438.704 446.595 438.368L447.303 438.56C447.175 438.856 446.979 439.124 446.715 439.364C446.451 439.604 446.139 439.792 445.779 439.928C445.427 440.056 445.047 440.12 444.639 440.12ZM442.335 436.58H446.955C446.923 436.124 446.799 435.724 446.583 435.38C446.375 435.036 446.099 434.768 445.755 434.576C445.419 434.376 445.047 434.276 444.639 434.276C444.231 434.276 443.859 434.376 443.523 434.576C443.187 434.768 442.911 435.04 442.695 435.392C442.487 435.736 442.367 436.132 442.335 436.58Z" fill="#FFC300"/>
<path d="M352.354 436.354C352.549 436.158 352.549 435.842 352.354 435.646L349.172 432.464C348.976 432.269 348.66 432.269 348.464 432.464C348.269 432.66 348.269 432.976 348.464 433.172L351.293 436L348.464 438.828C348.269 439.024 348.269 439.34 348.464 439.536C348.66 439.731 348.976 439.731 349.172 439.536L352.354 436.354ZM39 436.5L352 436.5L352 435.5L39 435.5L39 436.5Z" fill="#FFC300"/>
</svg>
