<svg width="161" height="60" viewBox="0 0 161 60" fill="none" xmlns="http://www.w3.org/2000/svg">
<path d="M1.485 0.119995H0.299988V59.371H1.485V0.119995Z" fill="white"/>
<path d="M21.5237 19.5306H20.3387V59.371H21.5237V19.5306Z" fill="white"/>
<path d="M61.2892 19.5306H60.1041V59.371H61.2892V19.5306Z" fill="white"/>
<path d="M101.369 19.5306H100.184V59.371H101.369V19.5306Z" fill="white"/>
<path d="M41.4052 11.9702H40.2202V59.371H41.4052V11.9702Z" fill="white"/>
<path d="M81.1707 11.9702H79.9857V59.371H81.1707V11.9702Z" fill="white"/>
<path d="M121.25 11.9702H120.065V59.371H121.25V11.9702Z" fill="white"/>
<path d="M21.5237 19.5306H20.3387V59.371H21.5237V19.5306Z" fill="white"/>
<path d="M61.2892 19.5306H60.1041V59.371H61.2892V19.5306Z" fill="white"/>
<path d="M101.369 19.5306H100.184V59.371H101.369V19.5306Z" fill="white"/>
<path d="M51.2698 19.5306H50.0848V59.371H51.2698V19.5306Z" fill="white"/>
<path d="M71.3085 19.5306H70.1235V59.371H71.3085V19.5306Z" fill="white"/>
<path d="M111.388 19.5306H110.203V59.371H111.388V19.5306Z" fill="white"/>
<path d="M11.5044 19.5306H10.3193V59.371H11.5044V19.5306Z" fill="white"/>
<path d="M31.6615 19.5306H30.4765V59.371H31.6615V19.5306Z" fill="white"/>
<path d="M91.3496 19.5306H90.1646V59.371H91.3496V19.5306Z" fill="white"/>
<path d="M141.446 19.5306H140.261V59.371H141.446V19.5306Z" fill="white"/>
<path d="M151.466 19.5306H150.281V59.371H151.466V19.5306Z" fill="white"/>
<path d="M131.427 19.5306H130.242V59.371H131.427V19.5306Z" fill="white"/>
</svg>
