<svg width="500" height="500" viewBox="0 0 500 500" fill="none" xmlns="http://www.w3.org/2000/svg">
<path d="M217.18 85.24C216.84 84.86 216.46 84.53 216.04 84.25C215.62 83.95 215.17 83.71 214.69 83.53C214.21 83.33 213.69 83.18 213.13 83.08C212.57 82.98 211.97 82.93 211.33 82.93C209.25 82.93 207.73 83.33 206.77 84.13C205.83 84.91 205.36 85.97 205.36 87.31C205.36 88.21 205.57 88.93 205.99 89.47C206.43 89.99 207.11 90.41 208.03 90.73C208.95 91.05 210.14 91.36 211.6 91.66C213.14 91.98 214.47 92.36 215.59 92.8C216.71 93.22 217.57 93.8 218.17 94.54C218.79 95.28 219.1 96.28 219.1 97.54C219.1 98.48 218.92 99.31 218.56 100.03C218.2 100.73 217.68 101.31 217 101.77C216.32 102.23 215.51 102.58 214.57 102.82C213.65 103.06 212.62 103.18 211.48 103.18C210.38 103.18 209.33 103.06 208.33 102.82C207.33 102.58 206.39 102.23 205.51 101.77C204.63 101.31 203.81 100.72 203.05 100L203.86 98.77C204.3 99.25 204.79 99.68 205.33 100.06C205.89 100.42 206.49 100.73 207.13 100.99C207.79 101.25 208.49 101.46 209.23 101.62C209.97 101.76 210.74 101.83 211.54 101.83C213.4 101.83 214.85 101.49 215.89 100.81C216.95 100.11 217.48 99.08 217.48 97.72C217.48 96.78 217.24 96.02 216.76 95.44C216.28 94.86 215.54 94.39 214.54 94.03C213.54 93.65 212.29 93.3 210.79 92.98C209.29 92.66 208.01 92.3 206.95 91.9C205.91 91.5 205.12 90.96 204.58 90.28C204.06 89.6 203.8 88.68 203.8 87.52C203.8 86.24 204.11 85.16 204.73 84.28C205.37 83.38 206.26 82.7 207.4 82.24C208.54 81.78 209.85 81.55 211.33 81.55C212.25 81.55 213.1 81.64 213.88 81.82C214.68 82 215.41 82.28 216.07 82.66C216.75 83.02 217.38 83.48 217.96 84.04L217.18 85.24ZM222.984 92.2C222.984 90.92 223.204 89.66 223.644 88.42C224.104 87.16 224.764 86.02 225.624 85C226.484 83.96 227.534 83.13 228.774 82.51C230.034 81.89 231.464 81.58 233.064 81.58C234.964 81.58 236.584 82.02 237.924 82.9C239.264 83.76 240.264 84.87 240.924 86.23L239.664 86.95C239.164 85.97 238.544 85.19 237.804 84.61C237.084 84.03 236.304 83.62 235.464 83.38C234.624 83.12 233.784 82.99 232.944 82.99C231.604 82.99 230.404 83.26 229.344 83.8C228.304 84.34 227.424 85.06 226.704 85.96C225.984 86.86 225.434 87.86 225.054 88.96C224.694 90.06 224.514 91.17 224.514 92.29C224.514 93.55 224.734 94.75 225.174 95.89C225.614 97.01 226.214 98.01 226.974 98.89C227.754 99.77 228.654 100.47 229.674 100.99C230.714 101.51 231.834 101.77 233.034 101.77C233.894 101.77 234.764 101.63 235.644 101.35C236.544 101.05 237.384 100.6 238.164 100C238.944 99.38 239.574 98.58 240.054 97.6L241.374 98.23C240.914 99.29 240.224 100.19 239.304 100.93C238.384 101.67 237.364 102.23 236.244 102.61C235.124 102.99 234.014 103.18 232.914 103.18C231.474 103.18 230.144 102.87 228.924 102.25C227.704 101.61 226.644 100.77 225.744 99.73C224.864 98.67 224.184 97.49 223.704 96.19C223.224 94.87 222.984 93.54 222.984 92.2ZM253.064 81.7H254.384L263.384 103H261.764L258.794 95.98H248.624L245.654 103H244.004L253.064 81.7ZM258.374 94.72L253.724 83.56L248.984 94.72H258.374ZM268.118 103V81.7H269.648V101.62H282.368V103H268.118ZM301.24 101.62V103H287.05V81.7H300.97V83.08H288.58V91.45H299.41V92.77H288.58V101.62H301.24Z" fill="#B2B2B2"/>
<path d="M62 91L177 91.9914" stroke="#B2B2B2"/>
<path d="M322 91L437 91.9914" stroke="#B2B2B2"/>
<line x1="157.279" y1="157.585" x2="158.109" y2="158.143" stroke="#FFC300"/>
<path d="M167.38 158.84V158.08H173.36V158.84H167.38ZM167.38 156.88V156.12H173.36V156.88H167.38ZM185.727 162.64L186.447 162.66V164.98H185.727V162.64ZM185.787 162.5V149.3L186.407 149.22V162.54L185.787 162.5ZM185.727 146.7H186.447V149.2L185.727 149.28V146.7ZM190.107 151.16C189.881 150.907 189.627 150.687 189.347 150.5C189.081 150.3 188.781 150.14 188.447 150.02C188.127 149.887 187.781 149.787 187.407 149.72C187.047 149.653 186.654 149.62 186.227 149.62C184.841 149.62 183.827 149.887 183.187 150.42C182.561 150.94 182.247 151.647 182.247 152.54C182.247 153.14 182.387 153.62 182.667 153.98C182.961 154.327 183.414 154.607 184.027 154.82C184.641 155.033 185.427 155.24 186.387 155.44C187.414 155.653 188.301 155.907 189.047 156.2C189.807 156.48 190.387 156.867 190.787 157.36C191.187 157.853 191.387 158.52 191.387 159.36C191.387 159.987 191.267 160.54 191.027 161.02C190.787 161.487 190.441 161.873 189.987 162.18C189.547 162.487 189.014 162.72 188.387 162.88C187.774 163.04 187.087 163.12 186.327 163.12C185.581 163.12 184.874 163.04 184.207 162.88C183.554 162.72 182.934 162.487 182.347 162.18C181.761 161.873 181.207 161.48 180.687 161L181.247 160.18C181.541 160.5 181.867 160.787 182.227 161.04C182.601 161.28 183.001 161.487 183.427 161.66C183.867 161.833 184.327 161.973 184.807 162.08C185.301 162.173 185.814 162.22 186.347 162.22C187.587 162.22 188.561 161.993 189.267 161.54C189.974 161.073 190.327 160.387 190.327 159.48C190.327 158.853 190.161 158.347 189.827 157.96C189.507 157.573 189.014 157.26 188.347 157.02C187.694 156.767 186.867 156.533 185.867 156.32C184.867 156.107 184.014 155.867 183.307 155.6C182.614 155.333 182.087 154.973 181.727 154.52C181.367 154.067 181.187 153.453 181.187 152.68C181.187 151.827 181.401 151.107 181.827 150.52C182.254 149.92 182.841 149.467 183.587 149.16C184.347 148.853 185.227 148.7 186.227 148.7C186.841 148.7 187.407 148.76 187.927 148.88C188.447 149 188.927 149.187 189.367 149.44C189.821 149.68 190.241 149.987 190.627 150.36L190.107 151.16ZM199.951 162.08V163H193.571V162.08H196.411V152.84C196.291 153 196.104 153.173 195.851 153.36C195.598 153.547 195.311 153.727 194.991 153.9C194.671 154.073 194.344 154.213 194.011 154.32C193.678 154.427 193.378 154.48 193.111 154.48V153.48C193.444 153.48 193.791 153.393 194.151 153.22C194.524 153.033 194.878 152.827 195.211 152.6C195.544 152.36 195.818 152.14 196.031 151.94C196.258 151.74 196.384 151.62 196.411 151.58H197.411V162.08H199.951ZM211.455 157.14C211.455 158.313 211.242 159.36 210.815 160.28C210.388 161.187 209.795 161.9 209.035 162.42C208.288 162.94 207.435 163.2 206.475 163.2C205.515 163.2 204.662 162.94 203.915 162.42C203.168 161.9 202.582 161.187 202.155 160.28C201.728 159.36 201.515 158.313 201.515 157.14C201.515 155.967 201.728 154.927 202.155 154.02C202.582 153.1 203.168 152.38 203.915 151.86C204.662 151.327 205.515 151.06 206.475 151.06C207.435 151.06 208.288 151.327 209.035 151.86C209.795 152.38 210.388 153.1 210.815 154.02C211.242 154.927 211.455 155.967 211.455 157.14ZM210.435 157.14C210.435 156.127 210.268 155.233 209.935 154.46C209.602 153.687 209.135 153.087 208.535 152.66C207.948 152.22 207.262 152 206.475 152C205.702 152 205.015 152.22 204.415 152.66C203.815 153.087 203.348 153.687 203.015 154.46C202.682 155.233 202.515 156.127 202.515 157.14C202.515 158.153 202.682 159.047 203.015 159.82C203.348 160.58 203.815 161.18 204.415 161.62C205.015 162.047 205.702 162.26 206.475 162.26C207.262 162.26 207.948 162.047 208.535 161.62C209.135 161.18 209.602 160.58 209.935 159.82C210.268 159.047 210.435 158.153 210.435 157.14ZM214.542 164.62L214.842 163.04H214.482V161.3H215.502V163.04L215.082 164.62H214.542ZM228.447 157.14C228.447 158.313 228.234 159.36 227.807 160.28C227.381 161.187 226.787 161.9 226.027 162.42C225.281 162.94 224.427 163.2 223.467 163.2C222.507 163.2 221.654 162.94 220.907 162.42C220.161 161.9 219.574 161.187 219.147 160.28C218.721 159.36 218.507 158.313 218.507 157.14C218.507 155.967 218.721 154.927 219.147 154.02C219.574 153.1 220.161 152.38 220.907 151.86C221.654 151.327 222.507 151.06 223.467 151.06C224.427 151.06 225.281 151.327 226.027 151.86C226.787 152.38 227.381 153.1 227.807 154.02C228.234 154.927 228.447 155.967 228.447 157.14ZM227.427 157.14C227.427 156.127 227.261 155.233 226.927 154.46C226.594 153.687 226.127 153.087 225.527 152.66C224.941 152.22 224.254 152 223.467 152C222.694 152 222.007 152.22 221.407 152.66C220.807 153.087 220.341 153.687 220.007 154.46C219.674 155.233 219.507 156.127 219.507 157.14C219.507 158.153 219.674 159.047 220.007 159.82C220.341 160.58 220.807 161.18 221.407 161.62C222.007 162.047 222.694 162.26 223.467 162.26C224.254 162.26 224.941 162.047 225.527 161.62C226.127 161.18 226.594 160.58 226.927 159.82C227.261 159.047 227.427 158.153 227.427 157.14ZM240.674 157.14C240.674 158.313 240.46 159.36 240.034 160.28C239.607 161.187 239.014 161.9 238.254 162.42C237.507 162.94 236.654 163.2 235.694 163.2C234.734 163.2 233.88 162.94 233.134 162.42C232.387 161.9 231.8 161.187 231.374 160.28C230.947 159.36 230.734 158.313 230.734 157.14C230.734 155.967 230.947 154.927 231.374 154.02C231.8 153.1 232.387 152.38 233.134 151.86C233.88 151.327 234.734 151.06 235.694 151.06C236.654 151.06 237.507 151.327 238.254 151.86C239.014 152.38 239.607 153.1 240.034 154.02C240.46 154.927 240.674 155.967 240.674 157.14ZM239.654 157.14C239.654 156.127 239.487 155.233 239.154 154.46C238.82 153.687 238.354 153.087 237.754 152.66C237.167 152.22 236.48 152 235.694 152C234.92 152 234.234 152.22 233.634 152.66C233.034 153.087 232.567 153.687 232.234 154.46C231.9 155.233 231.734 156.127 231.734 157.14C231.734 158.153 231.9 159.047 232.234 159.82C232.567 160.58 233.034 161.18 233.634 161.62C234.234 162.047 234.92 162.26 235.694 162.26C236.48 162.26 237.167 162.047 237.754 161.62C238.354 161.18 238.82 160.58 239.154 159.82C239.487 159.047 239.654 158.153 239.654 157.14ZM252.9 157.14C252.9 158.313 252.687 159.36 252.26 160.28C251.834 161.187 251.24 161.9 250.48 162.42C249.734 162.94 248.88 163.2 247.92 163.2C246.96 163.2 246.107 162.94 245.36 162.42C244.614 161.9 244.027 161.187 243.6 160.28C243.174 159.36 242.96 158.313 242.96 157.14C242.96 155.967 243.174 154.927 243.6 154.02C244.027 153.1 244.614 152.38 245.36 151.86C246.107 151.327 246.96 151.06 247.92 151.06C248.88 151.06 249.734 151.327 250.48 151.86C251.24 152.38 251.834 153.1 252.26 154.02C252.687 154.927 252.9 155.967 252.9 157.14ZM251.88 157.14C251.88 156.127 251.714 155.233 251.38 154.46C251.047 153.687 250.58 153.087 249.98 152.66C249.394 152.22 248.707 152 247.92 152C247.147 152 246.46 152.22 245.86 152.66C245.26 153.087 244.794 153.687 244.46 154.46C244.127 155.233 243.96 156.127 243.96 157.14C243.96 158.153 244.127 159.047 244.46 159.82C244.794 160.58 245.26 161.18 245.86 161.62C246.46 162.047 247.147 162.26 247.92 162.26C248.707 162.26 249.394 162.047 249.98 161.62C250.58 161.18 251.047 160.58 251.38 159.82C251.714 159.047 251.88 158.153 251.88 157.14Z" fill="white"/>
<path d="M307.38 158.84V158.08H313.36V158.84H307.38ZM307.38 156.88V156.12H313.36V156.88H307.38ZM325.727 162.64L326.447 162.66V164.98H325.727V162.64ZM325.787 162.5V149.3L326.407 149.22V162.54L325.787 162.5ZM325.727 146.7H326.447V149.2L325.727 149.28V146.7ZM330.107 151.16C329.881 150.907 329.627 150.687 329.347 150.5C329.081 150.3 328.781 150.14 328.447 150.02C328.127 149.887 327.781 149.787 327.407 149.72C327.047 149.653 326.654 149.62 326.227 149.62C324.841 149.62 323.827 149.887 323.187 150.42C322.561 150.94 322.247 151.647 322.247 152.54C322.247 153.14 322.387 153.62 322.667 153.98C322.961 154.327 323.414 154.607 324.027 154.82C324.641 155.033 325.427 155.24 326.387 155.44C327.414 155.653 328.301 155.907 329.047 156.2C329.807 156.48 330.387 156.867 330.787 157.36C331.187 157.853 331.387 158.52 331.387 159.36C331.387 159.987 331.267 160.54 331.027 161.02C330.787 161.487 330.441 161.873 329.987 162.18C329.547 162.487 329.014 162.72 328.387 162.88C327.774 163.04 327.087 163.12 326.327 163.12C325.581 163.12 324.874 163.04 324.207 162.88C323.554 162.72 322.934 162.487 322.347 162.18C321.761 161.873 321.207 161.48 320.687 161L321.247 160.18C321.541 160.5 321.867 160.787 322.227 161.04C322.601 161.28 323.001 161.487 323.427 161.66C323.867 161.833 324.327 161.973 324.807 162.08C325.301 162.173 325.814 162.22 326.347 162.22C327.587 162.22 328.561 161.993 329.267 161.54C329.974 161.073 330.327 160.387 330.327 159.48C330.327 158.853 330.161 158.347 329.827 157.96C329.507 157.573 329.014 157.26 328.347 157.02C327.694 156.767 326.867 156.533 325.867 156.32C324.867 156.107 324.014 155.867 323.307 155.6C322.614 155.333 322.087 154.973 321.727 154.52C321.367 154.067 321.187 153.453 321.187 152.68C321.187 151.827 321.401 151.107 321.827 150.52C322.254 149.92 322.841 149.467 323.587 149.16C324.347 148.853 325.227 148.7 326.227 148.7C326.841 148.7 327.407 148.76 327.927 148.88C328.447 149 328.927 149.187 329.367 149.44C329.821 149.68 330.241 149.987 330.627 150.36L330.107 151.16ZM339.951 162.08V163H333.571V162.08H336.411V152.84C336.291 153 336.104 153.173 335.851 153.36C335.598 153.547 335.311 153.727 334.991 153.9C334.671 154.073 334.344 154.213 334.011 154.32C333.678 154.427 333.378 154.48 333.111 154.48V153.48C333.444 153.48 333.791 153.393 334.151 153.22C334.524 153.033 334.878 152.827 335.211 152.6C335.544 152.36 335.818 152.14 336.031 151.94C336.258 151.74 336.384 151.62 336.411 151.58H337.411V162.08H339.951ZM362.352 163H361.352V157.2C361.352 155.88 361.145 154.907 360.732 154.28C360.332 153.653 359.712 153.34 358.872 153.34C358.018 153.34 357.258 153.647 356.592 154.26C355.938 154.86 355.478 155.633 355.212 156.58V163H354.212V157.2C354.212 155.867 354.012 154.893 353.612 154.28C353.212 153.653 352.592 153.34 351.752 153.34C350.898 153.34 350.138 153.64 349.472 154.24C348.818 154.827 348.352 155.6 348.072 156.56V163H347.072V152.6H348.012V155.08C348.452 154.227 349.018 153.573 349.712 153.12C350.405 152.653 351.165 152.42 351.992 152.42C352.858 152.42 353.565 152.68 354.112 153.2C354.672 153.707 355.005 154.387 355.112 155.24C355.605 154.307 356.192 153.607 356.872 153.14C357.552 152.66 358.325 152.42 359.192 152.42C359.765 152.42 360.245 152.527 360.632 152.74C361.032 152.94 361.358 153.24 361.612 153.64C361.878 154.027 362.065 154.507 362.172 155.08C362.292 155.653 362.352 156.3 362.352 157.02V163ZM365.373 163V152.6H366.373V163H365.373ZM365.373 150.24V148.4H366.373V150.24H365.373ZM369.593 148.4H370.613V160.94C370.613 161.42 370.713 161.753 370.913 161.94C371.113 162.113 371.373 162.2 371.693 162.2C371.906 162.2 372.126 162.18 372.353 162.14C372.58 162.1 372.78 162.047 372.953 161.98L373.153 162.8C372.926 162.88 372.646 162.953 372.313 163.02C371.98 163.087 371.693 163.12 371.453 163.12C370.893 163.12 370.44 162.953 370.093 162.62C369.76 162.273 369.593 161.813 369.593 161.24V148.4ZM374.769 148.4H375.789V160.94C375.789 161.42 375.889 161.753 376.089 161.94C376.289 162.113 376.549 162.2 376.869 162.2C377.082 162.2 377.302 162.18 377.529 162.14C377.756 162.1 377.956 162.047 378.129 161.98L378.329 162.8C378.102 162.88 377.822 162.953 377.489 163.02C377.156 163.087 376.869 163.12 376.629 163.12C376.069 163.12 375.616 162.953 375.269 162.62C374.936 162.273 374.769 161.813 374.769 161.24V148.4ZM379.865 163V152.6H380.865V163H379.865ZM379.865 150.24V148.4H380.865V150.24H379.865ZM388.365 163.2C387.632 163.2 386.952 163.06 386.325 162.78C385.712 162.5 385.179 162.113 384.725 161.62C384.272 161.113 383.919 160.533 383.665 159.88C383.412 159.227 383.285 158.54 383.285 157.82C383.285 157.087 383.412 156.4 383.665 155.76C383.919 155.107 384.272 154.533 384.725 154.04C385.192 153.533 385.732 153.14 386.345 152.86C386.972 152.567 387.645 152.42 388.365 152.42C389.085 152.42 389.752 152.567 390.365 152.86C390.979 153.14 391.519 153.533 391.985 154.04C392.452 154.533 392.812 155.107 393.065 155.76C393.319 156.4 393.445 157.087 393.445 157.82C393.445 158.54 393.319 159.227 393.065 159.88C392.812 160.533 392.452 161.113 391.985 161.62C391.532 162.113 390.992 162.5 390.365 162.78C389.752 163.06 389.085 163.2 388.365 163.2ZM384.285 157.86C384.285 158.673 384.465 159.42 384.825 160.1C385.199 160.767 385.692 161.3 386.305 161.7C386.919 162.1 387.599 162.3 388.345 162.3C389.092 162.3 389.772 162.1 390.385 161.7C391.012 161.287 391.505 160.74 391.865 160.06C392.239 159.367 392.425 158.613 392.425 157.8C392.425 156.987 392.239 156.24 391.865 155.56C391.505 154.88 391.012 154.34 390.385 153.94C389.772 153.527 389.099 153.32 388.365 153.32C387.619 153.32 386.939 153.527 386.325 153.94C385.712 154.353 385.219 154.9 384.845 155.58C384.472 156.26 384.285 157.02 384.285 157.86ZM404.341 163H403.341V157.2C403.341 155.867 403.148 154.893 402.761 154.28C402.388 153.653 401.788 153.34 400.961 153.34C400.375 153.34 399.795 153.48 399.221 153.76C398.661 154.04 398.168 154.427 397.741 154.92C397.328 155.4 397.028 155.947 396.841 156.56V163H395.841V152.6H396.781V155.08C397.061 154.547 397.435 154.087 397.901 153.7C398.368 153.3 398.888 152.987 399.461 152.76C400.035 152.533 400.628 152.42 401.241 152.42C401.815 152.42 402.295 152.527 402.681 152.74C403.081 152.94 403.401 153.233 403.641 153.62C403.895 154.007 404.075 154.487 404.181 155.06C404.288 155.633 404.341 156.287 404.341 157.02V163Z" fill="white"/>
<path d="M310.38 302.84V302.08H316.36V302.84H310.38ZM310.38 300.88V300.12H316.36V300.88H310.38ZM328.727 306.64L329.447 306.66V308.98H328.727V306.64ZM328.787 306.5V293.3L329.407 293.22V306.54L328.787 306.5ZM328.727 290.7H329.447V293.2L328.727 293.28V290.7ZM333.107 295.16C332.881 294.907 332.627 294.687 332.347 294.5C332.081 294.3 331.781 294.14 331.447 294.02C331.127 293.887 330.781 293.787 330.407 293.72C330.047 293.653 329.654 293.62 329.227 293.62C327.841 293.62 326.827 293.887 326.187 294.42C325.561 294.94 325.247 295.647 325.247 296.54C325.247 297.14 325.387 297.62 325.667 297.98C325.961 298.327 326.414 298.607 327.027 298.82C327.641 299.033 328.427 299.24 329.387 299.44C330.414 299.653 331.301 299.907 332.047 300.2C332.807 300.48 333.387 300.867 333.787 301.36C334.187 301.853 334.387 302.52 334.387 303.36C334.387 303.987 334.267 304.54 334.027 305.02C333.787 305.487 333.441 305.873 332.987 306.18C332.547 306.487 332.014 306.72 331.387 306.88C330.774 307.04 330.087 307.12 329.327 307.12C328.581 307.12 327.874 307.04 327.207 306.88C326.554 306.72 325.934 306.487 325.347 306.18C324.761 305.873 324.207 305.48 323.687 305L324.247 304.18C324.541 304.5 324.867 304.787 325.227 305.04C325.601 305.28 326.001 305.487 326.427 305.66C326.867 305.833 327.327 305.973 327.807 306.08C328.301 306.173 328.814 306.22 329.347 306.22C330.587 306.22 331.561 305.993 332.267 305.54C332.974 305.073 333.327 304.387 333.327 303.48C333.327 302.853 333.161 302.347 332.827 301.96C332.507 301.573 332.014 301.26 331.347 301.02C330.694 300.767 329.867 300.533 328.867 300.32C327.867 300.107 327.014 299.867 326.307 299.6C325.614 299.333 325.087 298.973 324.727 298.52C324.367 298.067 324.187 297.453 324.187 296.68C324.187 295.827 324.401 295.107 324.827 294.52C325.254 293.92 325.841 293.467 326.587 293.16C327.347 292.853 328.227 292.7 329.227 292.7C329.841 292.7 330.407 292.76 330.927 292.88C331.447 293 331.927 293.187 332.367 293.44C332.821 293.68 333.241 293.987 333.627 294.36L333.107 295.16ZM342.951 306.08V307H336.571V306.08H339.411V296.84C339.291 297 339.104 297.173 338.851 297.36C338.598 297.547 338.311 297.727 337.991 297.9C337.671 298.073 337.344 298.213 337.011 298.32C336.678 298.427 336.378 298.48 336.111 298.48V297.48C336.444 297.48 336.791 297.393 337.151 297.22C337.524 297.033 337.878 296.827 338.211 296.6C338.544 296.36 338.818 296.14 339.031 295.94C339.258 295.74 339.384 295.62 339.411 295.58H340.411V306.08H342.951ZM354.932 307.2C354.118 307.2 353.358 306.987 352.652 306.56C351.945 306.12 351.392 305.573 350.992 304.92V307H350.072V292.4H351.072V298.86C351.565 298.14 352.145 297.553 352.812 297.1C353.492 296.647 354.272 296.42 355.152 296.42C355.898 296.42 356.558 296.573 357.132 296.88C357.718 297.187 358.218 297.6 358.632 298.12C359.045 298.64 359.358 299.22 359.572 299.86C359.798 300.5 359.912 301.16 359.912 301.84C359.912 302.547 359.785 303.227 359.532 303.88C359.278 304.52 358.925 305.093 358.472 305.6C358.018 306.093 357.492 306.487 356.892 306.78C356.292 307.06 355.638 307.2 354.932 307.2ZM354.732 306.3C355.345 306.3 355.905 306.18 356.412 305.94C356.918 305.687 357.352 305.347 357.712 304.92C358.085 304.493 358.372 304.013 358.572 303.48C358.785 302.947 358.892 302.4 358.892 301.84C358.892 301.053 358.725 300.32 358.392 299.64C358.058 298.947 357.592 298.387 356.992 297.96C356.392 297.533 355.698 297.32 354.912 297.32C354.325 297.32 353.785 297.453 353.292 297.72C352.798 297.973 352.365 298.307 351.992 298.72C351.632 299.133 351.325 299.587 351.072 300.08V303.52C351.125 303.907 351.272 304.273 351.512 304.62C351.752 304.953 352.052 305.247 352.412 305.5C352.785 305.74 353.172 305.933 353.572 306.08C353.985 306.227 354.372 306.3 354.732 306.3ZM362.318 307V296.6H363.318V307H362.318ZM362.318 294.24V292.4H363.318V294.24H362.318ZM366.538 292.4H367.558V304.94C367.558 305.42 367.658 305.753 367.858 305.94C368.058 306.113 368.318 306.2 368.638 306.2C368.852 306.2 369.072 306.18 369.298 306.14C369.525 306.1 369.725 306.047 369.898 305.98L370.098 306.8C369.872 306.88 369.592 306.953 369.258 307.02C368.925 307.087 368.638 307.12 368.398 307.12C367.838 307.12 367.385 306.953 367.038 306.62C366.705 306.273 366.538 305.813 366.538 305.24V292.4ZM371.714 292.4H372.734V304.94C372.734 305.42 372.834 305.753 373.034 305.94C373.234 306.113 373.494 306.2 373.814 306.2C374.028 306.2 374.248 306.18 374.474 306.14C374.701 306.1 374.901 306.047 375.074 305.98L375.274 306.8C375.048 306.88 374.768 306.953 374.434 307.02C374.101 307.087 373.814 307.12 373.574 307.12C373.014 307.12 372.561 306.953 372.214 306.62C371.881 306.273 371.714 305.813 371.714 305.24V292.4ZM376.81 307V296.6H377.81V307H376.81ZM376.81 294.24V292.4H377.81V294.24H376.81ZM385.311 307.2C384.577 307.2 383.897 307.06 383.271 306.78C382.657 306.5 382.124 306.113 381.671 305.62C381.217 305.113 380.864 304.533 380.611 303.88C380.357 303.227 380.231 302.54 380.231 301.82C380.231 301.087 380.357 300.4 380.611 299.76C380.864 299.107 381.217 298.533 381.671 298.04C382.137 297.533 382.677 297.14 383.291 296.86C383.917 296.567 384.591 296.42 385.311 296.42C386.031 296.42 386.697 296.567 387.311 296.86C387.924 297.14 388.464 297.533 388.931 298.04C389.397 298.533 389.757 299.107 390.011 299.76C390.264 300.4 390.391 301.087 390.391 301.82C390.391 302.54 390.264 303.227 390.011 303.88C389.757 304.533 389.397 305.113 388.931 305.62C388.477 306.113 387.937 306.5 387.311 306.78C386.697 307.06 386.031 307.2 385.311 307.2ZM381.231 301.86C381.231 302.673 381.411 303.42 381.771 304.1C382.144 304.767 382.637 305.3 383.251 305.7C383.864 306.1 384.544 306.3 385.291 306.3C386.037 306.3 386.717 306.1 387.331 305.7C387.957 305.287 388.451 304.74 388.811 304.06C389.184 303.367 389.371 302.613 389.371 301.8C389.371 300.987 389.184 300.24 388.811 299.56C388.451 298.88 387.957 298.34 387.331 297.94C386.717 297.527 386.044 297.32 385.311 297.32C384.564 297.32 383.884 297.527 383.271 297.94C382.657 298.353 382.164 298.9 381.791 299.58C381.417 300.26 381.231 301.02 381.231 301.86ZM401.287 307H400.287V301.2C400.287 299.867 400.093 298.893 399.707 298.28C399.333 297.653 398.733 297.34 397.907 297.34C397.32 297.34 396.74 297.48 396.167 297.76C395.607 298.04 395.113 298.427 394.687 298.92C394.273 299.4 393.973 299.947 393.787 300.56V307H392.787V296.6H393.727V299.08C394.007 298.547 394.38 298.087 394.847 297.7C395.313 297.3 395.833 296.987 396.407 296.76C396.98 296.533 397.573 296.42 398.187 296.42C398.76 296.42 399.24 296.527 399.627 296.74C400.027 296.94 400.347 297.233 400.587 297.62C400.84 298.007 401.02 298.487 401.127 299.06C401.233 299.633 401.287 300.287 401.287 301.02V307Z" fill="white"/>
<path d="M98.418 160.356V161H93.952V160.356H95.94V153.888C95.856 154 95.7253 154.121 95.548 154.252C95.3707 154.383 95.17 154.509 94.946 154.63C94.722 154.751 94.4933 154.849 94.26 154.924C94.0267 154.999 93.8167 155.036 93.63 155.036V154.336C93.8633 154.336 94.106 154.275 94.358 154.154C94.6193 154.023 94.8667 153.879 95.1 153.72C95.3333 153.552 95.5247 153.398 95.674 153.258C95.8327 153.118 95.9213 153.034 95.94 153.006H96.64V160.356H98.418ZM106.959 161.14C106.333 161.14 105.773 160.977 105.279 160.65C104.793 160.314 104.401 159.908 104.103 159.432V163.982H103.403V153.72H104.047V155.176C104.345 154.709 104.742 154.331 105.237 154.042C105.731 153.743 106.254 153.594 106.805 153.594C107.318 153.594 107.785 153.701 108.205 153.916C108.625 154.121 108.989 154.406 109.297 154.77C109.614 155.125 109.857 155.526 110.025 155.974C110.202 156.422 110.291 156.889 110.291 157.374C110.291 158.046 110.151 158.671 109.871 159.25C109.591 159.819 109.199 160.277 108.695 160.622C108.2 160.967 107.621 161.14 106.959 161.14ZM106.791 160.51C107.22 160.51 107.603 160.421 107.939 160.244C108.284 160.067 108.578 159.829 108.821 159.53C109.063 159.231 109.25 158.895 109.381 158.522C109.511 158.149 109.577 157.766 109.577 157.374C109.577 156.954 109.502 156.557 109.353 156.184C109.203 155.801 108.993 155.465 108.723 155.176C108.461 154.887 108.153 154.658 107.799 154.49C107.453 154.313 107.075 154.224 106.665 154.224C106.413 154.224 106.142 154.275 105.853 154.378C105.573 154.481 105.302 154.625 105.041 154.812C104.789 154.999 104.579 155.213 104.411 155.456C104.243 155.689 104.14 155.932 104.103 156.184V158.578C104.271 158.933 104.485 159.259 104.747 159.558C105.017 159.847 105.33 160.081 105.685 160.258C106.039 160.426 106.408 160.51 106.791 160.51ZM111.975 161V153.72H112.675V161H111.975ZM111.975 152.068V150.78H112.675V152.068H111.975ZM114.817 153.72L117.141 156.73L117.253 156.926L117.365 156.73L119.675 153.72H120.487L117.659 157.374L120.473 161H119.661L117.365 158.004L117.253 157.822L117.141 158.004L114.831 161H114.033L116.833 157.374L114.019 153.72H114.817ZM124.584 161.14C124.071 161.14 123.595 161.042 123.156 160.846C122.718 160.641 122.335 160.365 122.008 160.02C121.691 159.665 121.439 159.259 121.252 158.802C121.075 158.335 120.986 157.845 120.986 157.332C120.986 156.641 121.14 156.016 121.448 155.456C121.756 154.896 122.181 154.448 122.722 154.112C123.264 153.767 123.87 153.594 124.542 153.594C125.233 153.594 125.844 153.767 126.376 154.112C126.908 154.457 127.328 154.915 127.636 155.484C127.954 156.044 128.112 156.66 128.112 157.332C128.112 157.388 128.112 157.444 128.112 157.5C128.112 157.556 128.108 157.603 128.098 157.64H121.714C121.752 158.191 121.906 158.69 122.176 159.138C122.447 159.586 122.792 159.941 123.212 160.202C123.642 160.454 124.108 160.58 124.612 160.58C125.116 160.58 125.592 160.449 126.04 160.188C126.488 159.927 126.801 159.591 126.978 159.18L127.594 159.348C127.454 159.693 127.23 160.001 126.922 160.272C126.624 160.543 126.269 160.757 125.858 160.916C125.457 161.065 125.032 161.14 124.584 161.14ZM121.686 157.094H127.44C127.403 156.525 127.254 156.021 126.992 155.582C126.731 155.143 126.386 154.798 125.956 154.546C125.536 154.294 125.07 154.168 124.556 154.168C124.043 154.168 123.576 154.294 123.156 154.546C122.736 154.798 122.396 155.143 122.134 155.582C121.873 156.021 121.724 156.525 121.686 157.094ZM129.709 150.78H130.423V159.558C130.423 159.894 130.493 160.127 130.633 160.258C130.773 160.379 130.955 160.44 131.179 160.44C131.328 160.44 131.482 160.426 131.641 160.398C131.799 160.37 131.939 160.333 132.061 160.286L132.201 160.86C132.042 160.916 131.846 160.967 131.613 161.014C131.379 161.061 131.179 161.084 131.011 161.084C130.619 161.084 130.301 160.967 130.059 160.734C129.825 160.491 129.709 160.169 129.709 159.768V150.78ZM136.28 157.514V156.87H140.312V157.514H136.28ZM147.856 157.598L142.004 161.098V160.328L146.834 157.374L142.004 154.42V153.664L147.856 157.178V157.598Z" fill="#EEC7FC"/>
<rect x="93" y="201" width="197" height="197" fill="#663399"/>
<rect x="286" y="153" width="10" height="10" fill="#FFC300"/>
<line x1="62" y1="428.5" x2="437" y2="428.5" stroke="#B2B2B2"/>
</svg>
